<?xml version="1.0" encoding="UTF-8" standalone="no"?>
<svg
   version="1.0"
   width="2800"
   height="1100"
   viewBox="0 0 2800 1100"
   preserveAspectRatio="xMidYMid"
   id="svg225"
   sodipodi:docname="logow.svg"
   inkscape:version="1.4 (e7c3feb100, 2024-10-09)"
   xmlns:inkscape="http://www.inkscape.org/namespaces/inkscape"
   xmlns:sodipodi="http://sodipodi.sourceforge.net/DTD/sodipodi-0.dtd"
   xmlns="http://www.w3.org/2000/svg"
   xmlns:svg="http://www.w3.org/2000/svg">
  <defs
     id="defs225" />
  <sodipodi:namedview
     id="namedview225"
     pagecolor="#ffffff"
     bordercolor="#000000"
     borderopacity="0.25"
     inkscape:showpageshadow="2"
     inkscape:pageopacity="0.0"
     inkscape:pagecheckerboard="0"
     inkscape:deskcolor="#d1d1d1"
     inkscape:zoom="0.28340053"
     inkscape:cx="1609.0302"
     inkscape:cy="1157.3726"
     inkscape:window-width="1920"
     inkscape:window-height="1113"
     inkscape:window-x="0"
     inkscape:window-y="25"
     inkscape:window-maximized="1"
     inkscape:current-layer="svg225" />
  <g
     fill="#ffffff"
     id="g14"
     transform="translate(-100.9144,-919.31519)">
    <path
       d="m 393.3,2002.95 c -1.8,-3.15 0.6,-7.2 10.8,-18.6 4.2,-4.5 11.7,-12.9 16.65,-18.6 9.3,-10.5 18.9,-20.4 24.75,-25.2 2.25,-1.95 4.5,-2.4 7.5,-1.8 6.15,1.35 8.85,-2.1 8.25,-11.1 -0.3,-4.35 0.45,-9 1.65,-11.4 1.2,-2.25 2.1,-4.8 2.1,-5.55 0,-3.3 4.35,-5.25 15,-6.75 9.15,-1.2 12,-1.2 15.6,0.6 3.6,1.8 4.5,1.95 5.55,0.3 1.05,-1.8 0.9,-12.6 -0.3,-12.6 -0.15,0 -0.45,-2.4 -0.6,-5.25 -0.3,-6.15 0.75,-8.85 7.65,-18 l 5.1,-6.75 22.2,0.75 c 24.75,0.9 25.95,0.6 38.55,-11.25 20.85,-19.5 33.75,-30.15 45.3,-37.8 7.2,-4.65 14.25,-8.7 15.45,-8.85 1.2,-0.15 4.95,-1.2 8.25,-2.55 3.3,-1.2 10.2,-3 15.3,-3.9 10.05,-1.95 28.95,-1.8 28.95,0.15 0,0.6 2.25,1.2 4.95,1.2 2.55,0 6.75,1.05 9.15,2.25 2.25,1.2 4.8,1.95 5.4,1.5 0.75,-0.45 1.65,-0.15 2.1,0.6 0.75,1.05 9,3 13.35,3.15 1.05,0 12.15,5.7 19.65,10.05 1.8,1.05 4.35,1.95 5.85,1.95 1.35,0 2.55,0.75 2.55,1.5 0,0.9 1.65,1.5 3.75,1.5 2.1,0 7.2,1.65 11.25,3.75 4.2,2.1 7.8,3.75 8.25,3.9 0.3,0 3.6,1.35 7.05,2.85 3.6,1.65 7.5,3 8.7,3 1.35,0 3.75,0.9 5.4,2.1 1.65,1.2 4.95,2.4 7.35,2.7 2.4,0.15 4.5,1.2 4.8,2.1 0.6,1.65 -15.6,18.6 -17.55,18.6 -0.45,0 -1.8,-2.55 -2.85,-5.55 -3.3,-9.3 -4.35,-9.75 -9.45,-5.25 -10.8,9.6 -13.2,12.9 -13.2,19.05 0,5.25 0.9,6.75 9.15,14.55 4.95,4.8 9.9,8.7 10.8,8.7 1.05,0 3.45,1.8 5.4,3.75 4.95,5.25 9.15,4.95 9.15,-0.75 0,-3 -1.2,-5.25 -3.9,-7.05 -11.85,-8.25 -15.6,-13.8 -12.3,-18 1.5,-1.8 8.1,1.65 16.2,8.55 2.1,1.65 6,4.35 8.55,6 4.8,2.85 4.95,2.85 6.45,0.15 2.4,-4.5 0.15,-11.55 -4.8,-15.15 -4.05,-3 -4.35,-3.75 -3.45,-9.45 0.6,-3.45 1.5,-6.9 2.1,-7.8 0.9,-1.65 1.2,-2.55 1.5,-6.15 0.15,-2.1 1.5,-2.25 9.6,-1.35 5.1,0.45 11.4,1.35 13.8,1.8 14.4,2.25 26.7,2.7 40.65,1.2 19.8,-2.1 32.1,-5.85 36.15,-11.1 1.05,-1.35 1.95,-1.8 1.95,-1.2 0,0.6 3,-0.9 6.6,-3.45 3.75,-2.4 7.2,-4.5 7.65,-4.5 0.6,0 5.1,-3.3 10.05,-7.5 4.95,-4.05 9.75,-7.5 10.5,-7.5 0.9,0 4.35,-2.25 7.8,-4.95 3.45,-2.7 7.8,-6 9.9,-7.35 2.1,-1.2 5.4,-3.9 7.5,-5.85 9.75,-9.15 20.7,-17.85 22.5,-17.85 1.05,0 3.15,-1.65 4.8,-3.75 1.65,-2.1 3.75,-3.75 4.8,-3.75 1.05,0 3.45,-1.65 5.4,-3.75 1.95,-2.1 4.2,-3.75 5.1,-3.75 0.9,0 4.05,-2.1 6.9,-4.65 2.85,-2.7 13.35,-10.2 23.25,-16.8 28.2,-18.9 49.8,-26.85 74.25,-27.15 35.1,-0.3 66.75,9.45 94.2,29.25 8.25,6 99.3,96.9 99.3,99.3 0,1.65 -1.95,1.35 -5.25,-1.05 -5.7,-3.9 -18.3,-6.75 -23.55,-5.4 -8.4,2.55 -8.85,9.3 -0.75,11.25 2.7,0.6 5.85,1.35 7.05,1.65 1.2,0.45 3.6,0.9 5.25,1.05 1.8,0.3 3.75,0.9 4.5,1.35 0.9,0.45 2.7,0.6 4.2,0.45 1.35,-0.3 2.55,0.3 2.55,1.2 0,1.05 0.45,3.3 0.9,4.95 0.75,2.7 0.15,3.3 -4.2,4.05 -2.7,0.3 -7.2,-0.15 -9.9,-1.35 -2.7,-1.05 -7.8,-2.1 -11.25,-2.25 -7.95,-0.45 -10.05,-1.2 -10.05,-3.6 0,-2.7 -7.35,-10.05 -9,-9 -1.2,0.75 -1.2,18 0,18 0.15,0 0.6,2.1 1.05,4.5 1.2,7.8 0.75,16.2 -1.05,17.25 -2.55,1.65 0,6 3.6,6 4.8,-0.15 10.8,-6.3 12.3,-12.9 1.65,-6.75 6.6,-10.05 13.35,-8.85 7.95,1.5 17.85,0.9 24.45,-1.35 2.85,-0.9 3.3,-2.1 3.3,-8.55 0,-5.7 -0.6,-7.8 -3,-9.15 -2.85,-1.8 -4.2,-7.2 -1.8,-7.2 0.6,0 5.85,4.35 11.55,9.75 5.7,5.4 14.1,11.55 18.75,13.65 4.5,2.1 9.45,4.5 10.8,5.25 1.5,0.75 3.75,1.35 4.95,1.35 1.2,0 2.25,0.6 2.25,1.35 0,0.75 3.75,1.35 8.4,1.35 7.5,-0.15 8.4,-0.6 10.35,-4.35 1.95,-3.6 1.95,-4.5 -0.15,-6.45 -1.95,-1.95 -9.9,-3.3 -14.55,-2.55 -2.55,0.45 -20.25,-9.3 -27.45,-15 -4.05,-3.15 -7.95,-6.3 -8.85,-7.05 -11.85,-9 -25.05,-20.85 -29.25,-25.95 -2.85,-3.6 -9,-10.65 -13.65,-15.6 -4.5,-4.95 -14.25,-15.75 -21.45,-23.85 -18.3,-20.4 -36.75,-38.1 -43.5,-41.7 -2.7,-1.5 -7.5,-4.95 -14.1,-10.35 -3.9,-3.15 -22.35,-11.55 -31.05,-14.1 -9.75,-2.7 -12.15,-3.3 -20.25,-4.65 -2.85,-0.45 -5.7,-1.2 -6.3,-1.5 -4.95,-3.15 -56.85,-3.6 -68.7,-0.6 -9.15,2.25 -23.25,8.1 -24.6,10.2 -0.45,0.9 -2.4,1.8 -4.35,2.4 -2.1,0.45 -9.6,4.95 -16.95,10.05 -7.35,4.95 -15.3,10.2 -17.7,11.55 -2.25,1.5 -8.85,6.15 -14.4,10.5 -5.7,4.2 -10.8,7.8 -11.55,7.8 -0.6,0 -3.15,1.65 -5.55,3.75 -2.4,2.1 -4.95,3.75 -5.55,3.75 -0.6,0 -1.65,1.35 -2.1,3 -0.45,1.65 -1.65,3 -2.4,3 -0.9,0 -4.5,3 -8.25,6.75 -3.6,3.75 -6.9,6.75 -7.35,6.75 -0.45,0 -3.75,3 -7.2,6.75 -3.6,3.75 -6.9,6.75 -7.5,6.75 -1.05,0 -6.15,4.35 -18,15.45 -2.55,2.25 -5.25,4.05 -6.3,4.05 -0.9,0 -4.8,2.25 -8.4,5.1 -3.6,2.7 -12,6.9 -18.6,9.15 -11.25,4.05 -13.65,4.2 -39,4.5 -14.85,0 -28.95,-0.45 -31.5,-1.2 -2.4,-0.6 -5.85,-1.5 -7.35,-1.8 -1.5,-0.45 -5.25,-1.5 -8.25,-2.55 -3,-1.05 -5.7,-1.95 -6.15,-1.95 -1.35,-0.45 -6.6,-2.4 -10.5,-4.05 -2.1,-0.9 -5.7,-1.95 -8.1,-2.25 -2.4,-0.3 -5.55,-1.5 -6.75,-2.55 -1.35,-1.2 -6.15,-3.3 -10.65,-4.8 -4.5,-1.5 -11.55,-4.5 -15.45,-6.9 -3.9,-2.25 -8.1,-4.2 -9.15,-4.2 -0.9,0 -3.15,-0.9 -4.65,-2.1 -2.55,-1.8 -2.4,-2.4 3.75,-11.25 6.15,-8.7 6.6,-9 9.3,-6.75 1.8,1.65 2.7,4.65 2.7,8.7 0,8.7 1.5,12.9 4.2,12.9 1.35,0 5.85,-3.3 10.05,-7.5 l 7.5,-7.5 4.05,3.75 4.05,3.75 -3.75,6.6 c -3.45,6 -3.45,6.75 -1.35,9 3,3 4.8,2.1 14.25,-7.2 l 7.05,-7.05 1.65,4.2 c 0.9,2.4 1.5,5.25 1.5,6.45 0,2.7 1.2,9.15 2.55,13.65 1.35,4.2 4.5,1.35 6.75,-5.85 0.9,-3 2.4,-7.05 3.3,-8.85 l 1.65,-3.3 4.2,4.65 c 2.4,2.4 4.35,5.4 4.35,6.3 0,1.05 0.9,3 1.95,4.5 1.65,2.25 2.55,2.55 5.25,1.05 1.8,-0.9 4.2,-3.6 5.4,-6 2.25,-4.35 10.65,-7.5 13.2,-4.95 0.6,0.6 1.8,5.7 2.55,11.4 0.75,5.55 1.8,10.65 2.4,11.1 2.1,2.1 4.2,-3.45 4.05,-10.95 0,-5.7 0.75,-9.15 2.4,-11.4 l 2.7,-3.15 4.05,4.2 c 2.25,2.1 4.05,4.8 4.05,5.85 0,1.05 2.1,3.75 4.8,6 l 4.8,4.05 1.2,-4.2 c 0.9,-3 0.45,-5.7 -1.2,-9 -2.4,-4.35 -2.4,-4.8 0.3,-8.85 l 2.7,-4.2 7.8,8.55 c 8.55,9.6 13.05,10.8 13.8,3.45 0.3,-3 -0.9,-5.7 -4.05,-9.45 -5.1,-5.85 -5.4,-6.75 -2.85,-9.3 3,-3 5.25,-2.1 13.05,6.15 5.85,6 7.95,7.35 9.3,6 1.95,-1.95 0.75,-6.15 -4.35,-16.35 -2.25,-4.8 -1.65,-9.6 1.2,-9.6 0.9,0 3.3,1.65 5.25,3.6 6.9,6.9 12.15,9.9 13.95,8.1 3,-3 2.1,-6.75 -2.7,-11.25 -4.95,-4.65 -5.55,-7.5 -2.4,-11.85 1.8,-2.25 2.55,-2.55 4.05,-0.9 1.05,0.9 3.15,1.8 4.65,1.8 1.5,0 2.7,0.9 2.7,2.1 0,2.85 10.2,6.3 12.3,4.2 1.95,-1.95 -0.75,-9.45 -4.95,-13.2 -3,-2.7 -3.75,-7.35 -1.35,-8.85 0.75,-0.45 5.85,0.9 11.25,3 5.4,2.25 10.95,3.6 12,3.15 3.15,-1.2 2.85,-5.7 -0.6,-9.3 -4.65,-4.95 -5.25,-9.15 -1.65,-11.1 1.65,-0.9 3,-2.55 3,-3.75 0,-3.6 1.95,-2.7 6.45,3 4.35,5.4 10.5,7.05 12,3.3 0.45,-1.2 -0.6,-4.95 -2.1,-8.55 l -2.85,-6.45 3.3,-3.6 c 1.8,-1.8 3.75,-3.45 4.35,-3.45 0.6,0 4.05,2.7 7.5,6 10.5,9.75 13.65,7.2 8.1,-6 l -3.6,-8.25 3.9,-4.05 3.9,-4.05 6.6,8.1 c 10.05,12.15 14.25,7.65 6.3,-6.45 -3.45,-6.15 -3.6,-8.4 -0.45,-10.95 2.25,-1.8 3.45,-1.05 9.75,6.15 8.85,9.9 11.1,9 9.15,-3.6 -2.55,-15.75 5.1,-18 12.15,-3.45 2.85,5.85 5.1,8.55 6.9,8.55 4.5,0 5.85,-3.15 5.4,-12 -0.9,-15.9 5.25,-17.4 11.85,-2.85 2.85,6.3 4.8,8.85 6.9,8.85 4.05,0 5.25,-2.7 4.8,-11.7 -0.3,-6 0.3,-8.1 1.95,-8.7 2.7,-1.05 7.8,2.85 7.8,6.15 0,3.45 5.4,12.75 7.35,12.75 1.5,0 4.65,-6.6 5.85,-12 0.6,-2.25 4.35,-9 5.1,-9 3,0.15 6.45,4.95 6.75,9.3 0.6,7.35 3.45,13.35 5.85,12.3 1.2,-0.45 3.6,-3.6 5.55,-7.05 1.95,-3.45 4.8,-8.25 6.45,-10.5 l 2.85,-4.2 3.6,3.3 c 3.75,3.6 4.65,8.7 1.95,11.4 -0.75,0.75 -1.05,3.3 -0.6,5.4 0.75,3 1.8,3.6 4.8,3.3 3.6,-0.3 9.3,-5.7 9.45,-8.85 0,-0.75 1.05,-2.55 2.25,-4.05 1.95,-2.1 3,-2.25 6,-0.75 4.2,1.95 4.65,5.25 1.65,11.25 -1.35,2.4 -1.65,4.95 -0.9,6 2.1,3.6 8.1,0.6 13.5,-6.6 2.7,-3.75 5.55,-6.75 6.15,-6.75 0.6,0 2.55,1.95 4.05,4.2 2.25,3 2.7,4.8 1.65,6.75 -4.05,7.05 -1.65,13.05 3,7.5 2.25,-2.7 9.6,-7.95 11.25,-7.95 2.1,0 1.8,5.1 -0.75,10.35 -3.6,7.5 -3.6,8.7 0.15,9.9 3.15,1.05 12.75,-1.5 16.05,-4.05 2.4,-1.95 6.45,-0.45 6.45,2.1 0,1.05 -1.05,3.9 -2.25,6.3 -3,5.7 -2.85,7.95 0.75,9.15 2.25,0.75 4.65,-0.45 8.55,-3.9 l 5.55,-4.8 2.7,3.45 c 3.45,4.2 3.45,6.6 0,10.05 -4.5,4.5 -6.45,10.5 -4.05,12.45 1.5,1.2 2.85,1.2 5.1,-0.3 1.8,-1.05 3.15,-2.4 3.15,-3 0,-0.75 1.2,-1.2 2.7,-1.2 1.35,0 4.5,-1.05 6.75,-2.25 3.9,-2.1 4.2,-1.95 5.55,1.65 2.25,6 1.8,7.8 -2.55,9.9 -4.65,2.25 -6.15,7.35 -3,9.9 1.5,1.35 3.75,0.45 9.75,-3.6 8.4,-5.55 10.5,-5.7 10.2,-0.3 -0.15,2.55 -1.5,3.9 -5.1,4.95 -4.8,1.35 -4.95,1.65 -4.35,8.25 0.45,5.4 1.05,6.75 3.45,6.75 1.65,0 3.6,-1.8 4.8,-4.05 1.5,-3.15 3,-4.2 6.3,-4.2 2.4,0 4.8,-0.75 5.4,-1.65 0.6,-1.2 1.8,-0.45 3,1.8 2.85,5.25 2.7,5.55 -3.75,7.5 -6.15,1.8 -7.95,4.8 -6.6,10.35 1.05,3.9 5.25,3.9 7.65,0 1.05,-1.8 3.45,-3 6,-3 2.25,0 4.95,-0.75 5.85,-1.65 2.4,-2.4 4.95,-0.3 4.95,3.75 0,2.4 -1.35,4.05 -4.35,5.25 -5.1,2.25 -8.25,7.95 -5.7,10.5 2.55,2.55 6.6,1.95 8.85,-1.05 3.75,-5.4 11.7,-7.65 11.7,-3.3 0,0.75 -1.95,3.15 -4.2,5.55 -5.55,5.55 -6.75,8.85 -3.9,11.7 1.95,1.95 2.85,1.95 6.45,0.15 2.25,-1.2 4.95,-3.15 6,-4.5 2.1,-2.4 6.15,-1.65 6.15,1.35 0,0.9 -1.65,3.6 -3.75,5.85 -4.35,4.8 -4.95,10.65 -1.05,12.75 2.25,1.2 3.75,0.45 7.8,-3.6 5.55,-5.7 9.6,-6.6 11.7,-2.55 1.8,3.3 0.75,6.3 -2.1,6.3 -1.2,0 -2.7,1.5 -3.45,3.3 -1.35,3.75 -0.45,8.7 1.65,8.7 1.95,0 9.15,-4.8 11.7,-8.1 2.1,-2.4 2.55,-2.4 4.2,-0.45 1.8,2.1 3,1.95 10.5,-1.35 4.65,-2.1 9.6,-4.35 10.8,-4.95 1.8,-0.9 8.85,-12.3 13.05,-21.15 6.45,-13.5 37.2,-51 42,-51 1.05,0 1.95,-0.6 1.95,-1.2 0,-1.95 8.55,-6.3 12.45,-6.3 2.1,0 4.2,-0.9 4.5,-1.8 0.6,-1.5 0.9,-1.35 0.9,0.15 0.15,1.5 0.6,1.65 2.1,0.45 1.05,-0.9 4.8,-1.8 8.4,-2.1 6.15,-0.45 6.75,-0.75 7.2,-4.95 0.45,-2.4 1.95,-7.35 3.45,-10.8 2.7,-6.3 6.45,-9.45 23.85,-20.4 8.25,-5.25 9.75,-5.55 16.65,-4.8 4.2,0.45 8.85,1.5 10.2,2.1 4.35,2.25 9.9,4.35 13.8,5.55 4.35,1.2 7.35,4.65 7.5,8.55 0,2.7 -58.5,64.35 -62.1,65.25 -0.9,0.3 -2.7,0.9 -3.9,1.35 -1.2,0.6 -2.85,0.75 -3.6,0.6 -0.9,-0.15 -3,0 -4.95,0.6 -3,0.75 -3.45,1.5 -2.55,4.2 0.6,1.8 1.8,3.9 2.85,4.8 3.45,2.7 3.45,9.3 0.15,15.3 -3.6,6.3 -11.7,12.45 -16.5,12.45 -4.35,0 -9.75,-4.05 -11.55,-8.4 -2.7,-7.2 5.55,-20.1 12.9,-20.1 2.1,0 3.75,-0.6 3.75,-1.5 0,-0.75 -0.6,-1.5 -1.5,-1.5 -0.75,0 -1.5,-0.9 -1.5,-1.95 0,-1.05 -1.5,-2.7 -3.3,-3.9 -3,-1.95 -3.6,-1.65 -8.25,3.75 -2.7,3.3 -6.75,9.45 -8.85,13.8 -4.5,8.85 -4.2,14.1 1.05,21.45 3.3,4.8 2.85,7.5 -0.75,4.5 -2.85,-2.4 -8.1,-3.3 -9.15,-1.65 -0.45,0.75 -1.2,3.6 -1.5,6.3 -0.75,6.3 2.4,10.05 7.95,9 4.8,-0.9 6.6,-3 5.4,-6.6 -1.2,-3.75 1.2,-4.35 10.8,-2.55 9.15,1.65 23.1,7.95 23.1,10.2 0,0.9 1.2,1.8 2.7,2.25 1.35,0.45 4.65,2.85 7.35,5.4 2.7,2.4 5.85,4.5 7.05,4.5 1.2,0 2.4,0.75 2.7,1.65 0.75,2.25 31.35,6.3 33.3,4.35 2.25,-2.25 23.4,-1.95 24.3,0.45 0.45,1.5 3.3,1.65 12.3,0.6 14.7,-1.5 24.3,-1.65 24.3,0 0,1.2 -6.3,6.3 -10.95,8.85 -2.25,1.2 -7.65,4.95 -12,8.1 -4.2,3.3 -9.6,6.3 -11.85,6.75 -2.4,0.6 -4.2,1.95 -4.2,3.15 0,1.2 -0.6,2.1 -1.5,2.1 -0.75,0 -2.85,1.2 -4.35,2.55 -1.65,1.35 -6.6,4.5 -11.25,7.05 -4.5,2.55 -13.35,7.65 -19.8,11.25 -6.6,3.6 -13.5,6.45 -16.2,6.45 -5.25,0.15 -12.15,-1.2 -14.4,-2.55 -0.9,-0.6 -3.45,-1.35 -5.7,-1.65 -2.25,-0.45 -6,-1.8 -8.4,-3 -7.05,-3.45 -8.7,-2.85 -8.1,3.45 0.3,4.35 1.2,5.85 3.45,6.15 4.8,0.9 8.25,4.95 8.25,9.45 0,2.25 -0.6,4.5 -1.35,4.95 -1.5,0.9 -9.15,-2.4 -9.15,-3.9 0,-0.75 -2.25,-1.2 -5.1,-1.2 -2.85,0 -5.7,-0.75 -6.15,-1.65 -0.6,-0.9 -2.55,-2.1 -4.35,-2.7 -2.4,-1.05 -3.6,-0.6 -4.8,1.65 -2.1,3.9 -0.9,10.2 1.95,10.2 3,0 9.45,6.9 9.45,10.05 -0.15,7.2 -2.4,6.9 -12.6,-0.9 -10.95,-8.4 -12.15,-8.85 -13.5,-5.25 -1.8,4.8 -0.75,8.85 3.6,13.35 3.75,3.75 4.2,5.25 3.3,8.85 l -1.2,4.35 -5.4,-5.85 c -3,-3.15 -6.75,-7.5 -8.4,-9.45 -3.3,-4.2 -7.8,-3.45 -7.8,1.35 0,1.8 1.65,6.15 3.75,9.9 3.15,5.55 3.45,7.35 2.1,9.9 -1.65,3.15 -1.8,3.15 -3.75,0.3 -9.75,-13.95 -14.7,-20.1 -16.35,-20.1 -1.95,0 -5.55,3.6 -4.65,4.65 0.3,0.3 1.05,4.65 1.65,9.6 0.45,4.8 1.35,9.45 1.65,10.05 1.2,1.8 -2.4,7.35 -4.05,6.45 -0.75,-0.6 -4.05,-6.3 -7.35,-12.9 -8.1,-15.9 -10.5,-15.75 -11.25,0.75 -0.3,9 -2.55,15.9 -5.1,15.9 -1.95,0 -4.5,-3.6 -5.25,-7.65 -0.45,-1.95 -0.75,-3.6 -0.9,-3.6 -0.15,0 -0.45,-1.5 -0.75,-3.15 -0.45,-1.8 -1.35,-5.1 -2.4,-7.5 l -1.65,-4.35 -2.7,3.45 c -1.5,1.8 -3.6,7.05 -4.5,11.55 -2.1,9.75 -5.25,13.35 -8.4,9 -1.95,-2.55 -2.85,-6.9 -2.25,-10.35 1.05,-5.4 0.3,-11.85 -1.65,-13.8 -1.95,-1.95 -2.4,-1.95 -4.5,0.45 -1.35,1.5 -4.5,6.45 -6.9,10.95 -5.25,9.3 -9.15,10.8 -10.95,4.05 -0.6,-2.4 -0.6,-6 0.15,-7.95 1.5,-3.75 -0.3,-11.1 -2.7,-11.1 -2.1,0 -9.3,6 -9.3,7.65 0,2.55 -7.95,9 -10.35,8.55 -3,-0.6 -3.15,-4.5 -0.75,-12.9 1.05,-3.6 1.5,-7.5 1.2,-8.55 -1.5,-3.75 -12.6,-4.35 -12.6,-0.75 0,0.75 -1.35,1.8 -3,2.25 -1.65,0.45 -3,1.95 -3,3.3 0,1.35 -0.9,1.95 -2.1,1.5 -1.2,-0.45 -2.55,0.15 -3,1.35 -1.05,2.85 -5.25,2.7 -6.45,-0.3 -0.45,-1.35 0.9,-6 3.15,-10.35 3.9,-7.95 4.05,-11.85 0,-13.35 -2.4,-0.9 -9.6,1.95 -9.6,3.75 0,0.6 -1.35,1.65 -3,2.1 -1.65,0.45 -3.9,1.95 -5.1,3 -1.05,1.2 -3.75,2.55 -6,3.15 -3.6,0.9 -3.9,0.45 -3.9,-3.3 0,-4.95 1.05,-6.75 5.25,-9 4.05,-2.25 4.95,-11.85 1.35,-13.2 -1.35,-0.6 -4.2,0.15 -6.3,1.65 -8.7,6.3 -11.85,7.8 -15.75,7.8 -5.55,0.15 -7.2,-4.05 -2.85,-7.05 1.8,-1.2 3.3,-3.15 3.3,-4.2 0,-1.2 1.35,-2.85 3,-3.9 4.05,-2.55 3.75,-4.8 -0.75,-6.9 -3.45,-1.65 -5.25,-1.05 -14.85,4.2 -6,3.3 -12,5.7 -13.2,5.25 -3.45,-1.35 -1.5,-7.8 3.45,-11.4 3.3,-2.4 4.35,-4.2 4.35,-8.25 0,-3.3 -0.9,-5.55 -2.25,-6 -3.9,-1.5 -12.3,0.9 -16.35,4.65 -2.25,2.1 -4.65,3.75 -5.55,3.75 -0.75,0 -1.35,0.6 -1.35,1.35 0,2.4 -6.6,3.15 -8.7,1.05 -2.55,-2.55 -0.3,-7.05 6.15,-12.6 2.85,-2.55 4.05,-4.95 4.05,-8.7 0,-4.65 -0.45,-5.1 -4.5,-5.1 -2.7,0 -4.5,0.75 -4.5,1.95 0,2.25 -6.15,8.55 -8.4,8.55 -0.75,0 -2.55,1.35 -3.9,2.85 -1.65,1.95 -3.6,2.7 -5.55,2.1 -4.05,-1.05 -3.9,-2.7 0.6,-10.8 4.2,-7.35 4.65,-9.6 1.95,-11.85 -2.25,-1.65 -8.7,0.3 -8.7,2.7 0,1.35 -3.75,6.3 -8.7,11.4 -1.05,1.2 -3.45,2.1 -5.1,2.1 -2.85,0 -3,-0.6 -2.1,-8.55 0.6,-4.8 1.05,-10.05 1.05,-11.7 0,-3.75 -3.9,-6.6 -7.65,-5.7 -2.55,0.75 -4.35,4.35 -9.9,19.8 -0.6,1.8 -1.05,1.8 -3.15,-0.3 -1.35,-1.35 -2.55,-3.6 -2.7,-5.1 -0.75,-6.75 -4.05,-15.45 -6,-15.45 -2.55,0 -3.45,2.85 -4.5,13.5 -0.45,4.5 -1.5,8.85 -2.1,9.45 -0.75,0.75 -3.15,-1.8 -5.55,-6 -5.25,-9.15 -8.1,-12.45 -10.65,-12.45 -2.4,0 -2.7,10.8 -0.3,15.15 2.4,4.8 3,9.15 1.2,11.4 -2.25,2.7 -4.05,2.4 -5.1,-0.6 -0.45,-1.5 -2.85,-4.95 -5.4,-7.65 -3.15,-3.6 -5.25,-4.65 -7.35,-4.05 -4.2,1.35 -5.25,7.05 -2.4,12.45 3,6 3,12.15 0,13.35 -2.7,1.05 -8.7,-1.95 -13.2,-6.6 -3.3,-3.6 -6.3,-4.2 -9.6,-2.25 -1.35,0.9 -0.75,2.85 2.7,7.95 4.8,7.05 6,14.85 2.4,14.85 -1.2,0 -2.7,-0.6 -3.15,-1.5 -0.45,-0.75 -3.9,-3.3 -7.65,-5.4 -6.45,-3.75 -6.9,-3.9 -9.6,-1.35 -2.85,2.7 -2.85,2.7 1.5,8.7 5.1,7.05 5.4,8.85 2.1,12.3 -2.25,2.25 -2.85,2.1 -7.05,-3 -5.7,-7.05 -11.55,-9.45 -13.95,-6 -2.25,3.15 -1.65,7.05 2.1,12.45 2.85,4.2 2.85,9.3 -0.15,9.3 -0.9,0 -4.8,-2.7 -8.85,-6.15 -3.9,-3.3 -7.8,-5.55 -8.7,-5.1 -3.15,1.95 -1.5,9.6 3.15,15 2.7,3 4.5,5.55 4.2,5.7 -0.3,0.15 -2.1,1.65 -3.9,3.15 -3.3,2.7 -3.45,2.7 -9,-3.15 -7.95,-8.55 -11.85,-10.35 -13.95,-6.6 -1.65,3.3 -0.75,6.6 3.6,12.6 l 3,4.05 -3.15,3.15 -3,3.15 -5.7,-8.1 c -3.3,-4.35 -6,-8.25 -6.15,-8.55 -0.3,-0.3 -2.25,-0.15 -4.35,0.45 -4.65,1.2 -4.8,4.65 -0.45,13.65 3.15,6.6 3.15,6.9 0.6,9.45 -2.1,1.95 -3,2.1 -3.45,0.6 -0.45,-1.05 -2.55,-3.75 -4.8,-6 -2.1,-2.1 -4.5,-5.25 -5.4,-6.9 -2.1,-4.2 -4.8,-4.65 -6.75,-1.05 -1.2,2.4 -0.9,4.5 1.35,9.45 3,6.9 2.7,14.7 -0.6,14.7 -1.2,0 -4.65,-3.9 -7.8,-8.55 -7.95,-12.15 -10.2,-11.55 -10.05,2.25 0.15,10.2 0,10.8 -3.3,10.8 -3.75,0 -8.55,-5.85 -10.2,-12.3 -0.45,-2.25 -1.95,-5.1 -3.3,-6.3 -2.4,-2.55 -6.45,-3.3 -6.75,-1.2 -0.15,0.6 -0.45,2.4 -0.75,4.05 -3.3,20.55 -9,22.5 -13.05,4.5 -1.65,-7.2 -2.7,-9.15 -5.25,-9.45 -2.55,-0.45 -4.05,1.2 -7.5,8.25 -4.5,9.15 -8.55,11.7 -12.3,7.2 -1.35,-1.65 -1.5,-2.7 -0.15,-4.35 0.9,-1.05 1.35,-3.6 1.05,-5.55 -0.45,-1.95 -0.75,-4.65 -0.75,-6 -0.3,-6.45 -9,-3.9 -16.2,4.8 -2.4,2.7 -4.5,3.9 -6.15,3.3 -4.05,-1.35 -6.3,-5.1 -4.95,-7.8 1.2,-2.1 1.2,-4.8 0.45,-13.95 -0.3,-3.45 -7.5,-3.75 -8.7,-0.45 -0.6,1.2 -1.8,2.25 -3,2.25 -1.2,0 -3.9,2.1 -6.15,4.5 -6,6.75 -12,6 -9.15,-1.35 1.35,-3.75 1.8,-5.4 3.3,-12 0.45,-1.65 -0.6,-4.05 -2.1,-5.4 -2.55,-2.4 -3.15,-2.4 -8.55,0.15 -3.15,1.5 -7.5,3.9 -9.75,5.4 -8.7,6 -11.85,0.45 -4.8,-8.85 4.05,-5.4 4.35,-11.7 0.6,-11.85 -2.85,0 -9,4.05 -15.15,10.35 -4.65,4.65 -4.8,4.65 -6.3,1.65 -1.05,-2.4 -0.45,-4.95 2.55,-10.35 3.6,-7.05 3.6,-10.95 -0.45,-13.35 -1.35,-0.9 -14.1,6.75 -15.75,9.45 -1.65,2.55 -6.9,1.95 -7.95,-0.75 -0.45,-1.35 0.9,-5.85 3,-10.05 2.1,-4.2 3.6,-8.1 3.15,-8.85 -1.35,-2.25 -5.55,-1.2 -10.5,2.55 -5.55,4.2 -6.75,4.5 -9.3,1.95 -1.2,-1.2 -1.05,-3 0.45,-6.9 4.8,-11.25 0.9,-15 -8.25,-7.65 -3.6,2.85 -7.05,4.35 -9.15,4.05 -3.9,-0.45 -4.2,-3 -2.1,-15.75 1.05,-6 0.9,-6.45 -2.25,-6.45 -4.35,0 -13.5,5.7 -13.5,8.4 0,2.4 -3.9,2.85 -5.25,0.6 -0.45,-0.75 -1.2,-4.95 -1.65,-9.3 -0.45,-4.35 -1.65,-8.85 -2.85,-10.05 -2.85,-2.85 -7.95,-0.75 -10.65,4.8 -1.35,2.7 -3.9,6.75 -5.4,9 -2.85,4.05 -3.15,4.05 -5.85,1.65 -1.5,-1.35 -3.15,-4.95 -3.6,-7.95 -2.1,-12.45 -1.8,-12.15 -8.25,-12.15 -6.15,0 -9,2.7 -9,8.4 0,3.3 -5.85,15.6 -7.35,15.6 -0.6,0 -3,-4.05 -5.4,-9 -6,-12.6 -9.6,-12.3 -12,0.75 -1.65,9.6 -2.25,11.85 -3.6,13.2 -1.95,1.95 -5.25,-0.75 -7.65,-6.45 -1.05,-2.55 -2.25,-4.5 -2.85,-4.5 -1.65,0 -4.8,6 -3.9,7.5 0.45,0.75 0.15,4.2 -0.75,7.65 l -1.8,6.3 -4.2,-7.05 c -2.4,-4.2 -3.75,-8.55 -3.3,-10.2 0.9,-3.45 7.65,-7.95 28.05,-18.6 20.1,-10.35 21.6,-10.65 57.75,-8.85 8.7,0.3 18,3.15 18,5.4 0,0.6 2.55,1.65 5.7,2.1 9.3,1.5 26.7,10.95 31.05,16.65 0.9,1.35 4.8,3.6 8.55,5.1 3.75,1.35 10.35,4.95 14.85,7.8 14.55,9.3 16.95,10.8 23.85,14.4 3.75,2.1 7.8,4.5 9,5.4 1.2,1.05 7.05,4.65 12.75,8.1 5.85,3.3 12.3,7.8 14.4,9.9 2.25,2.1 4.35,3.3 4.8,3 0.75,-0.9 7.05,1.95 8.55,3.75 1.65,1.95 30.15,14.7 35.25,15.75 2.55,0.6 6.15,1.35 8.25,1.8 2.1,0.45 5.85,1.2 8.25,1.65 2.55,0.45 5.25,1.35 6,1.95 0.9,0.6 6,0.9 11.7,0.6 7.05,-0.3 10.05,0 10.05,1.35 0,1.35 0.3,1.35 1.2,0 1.2,-1.95 14.7,-4.95 24.6,-5.55 3.15,-0.15 6.9,-1.5 8.4,-2.85 1.5,-1.35 3.3,-2.55 3.9,-2.55 0.6,0 2.55,-1.35 4.35,-3 1.8,-1.65 4.05,-2.7 5.1,-2.4 1.05,0.45 1.95,-0.15 1.95,-1.2 0,-1.95 6.15,-5.4 9.75,-5.4 1.2,0 3.45,-1.2 4.95,-2.55 1.5,-1.5 4.35,-3.6 6.45,-4.65 5.1,-2.7 25.65,-18.15 33,-24.6 1.5,-1.5 3.45,-2.7 4.35,-2.7 0.75,0 1.95,-0.9 2.55,-1.95 0.6,-1.05 3.9,-3.9 7.2,-6.45 3.3,-2.4 8.4,-6.75 11.4,-9.6 3.15,-3 8.1,-6.75 11.4,-8.25 3.15,-1.65 6.15,-3.75 6.75,-4.65 0.6,-0.9 6.15,-4.8 12.3,-8.85 6.3,-4.05 11.4,-7.8 11.4,-8.4 0,-0.75 0.9,-0.9 1.95,-0.45 1.05,0.3 3.45,-0.6 5.4,-2.25 2.25,-1.95 6.6,-3.3 12.6,-3.75 17.55,-1.65 31.05,-1.8 31.5,-0.45 0.15,0.6 3,1.5 6.3,1.8 7.35,0.75 32.1,9.15 35.4,12.15 1.2,1.2 3.3,2.1 4.5,2.1 3,0 10.35,3.45 10.35,4.95 0,0.6 1.2,1.05 2.7,1.05 1.65,0 4.05,1.35 5.55,3 1.5,1.65 3.3,3 4.05,3 0.75,0 4.8,2.85 9.15,6.15 4.2,3.45 9.15,6.75 10.8,7.5 1.65,0.75 4.05,1.95 5.25,2.7 1.2,0.75 4.8,2.55 7.8,4.05 3,1.5 7.65,4.65 10.2,7.05 2.4,2.25 4.5,3.9 4.5,3.45 0,-0.45 5.85,3.6 13.2,9 7.2,5.55 15.45,10.95 18.3,12.45 2.85,1.35 5.55,2.85 6,3.3 0.45,0.45 5.1,2.85 10.5,5.25 5.4,2.4 10.05,4.8 10.2,5.4 0.3,0.6 1.8,1.2 3.3,1.2 1.65,0 3.6,1.2 4.35,2.7 1.05,2.1 3,2.55 8.4,2.25 3.9,-0.3 8.25,0.15 9.6,0.9 2.55,1.5 40.8,2.4 45.15,1.2 1.2,-0.3 4.35,-1.05 6.75,-1.65 5.55,-1.35 20.55,-7.5 28.5,-11.7 10.8,-5.7 30.75,-19.5 30.9,-21.15 0.45,-4.35 -0.6,-9.45 -2.1,-10.35 -1.65,-1.05 -7.2,1.95 -13.05,7.2 -5.85,5.1 -25.8,15.3 -37.95,19.35 -9.6,3.15 -33.45,6.45 -40.05,5.7 -1.2,-0.15 -6.3,-0.75 -11.25,-1.2 -9.3,-0.9 -17.25,-3 -22.5,-5.7 -1.65,-0.9 -4.05,-1.8 -5.25,-1.95 -1.2,-0.3 -2.4,-1.2 -2.7,-2.1 -0.3,-0.75 -1.2,-1.2 -1.95,-0.6 -0.75,0.45 -1.35,0 -1.35,-0.9 0,-0.9 -0.6,-1.35 -1.35,-0.9 -0.75,0.45 -2.1,-0.15 -3.15,-1.35 -1.05,-1.2 -2.7,-2.25 -3.6,-2.25 -1.05,0 -3.3,-1.35 -5.1,-3 -1.8,-1.65 -3.6,-2.85 -3.9,-2.7 -0.3,0.3 -2.25,-0.9 -4.2,-2.55 -1.95,-1.65 -5.25,-3.9 -7.5,-4.8 -2.4,-1.05 -4.2,-2.55 -4.2,-3.45 0,-0.75 -0.9,-1.5 -1.95,-1.5 -1.5,0 -7.65,-4.35 -18.6,-13.5 -1.05,-0.9 -2.25,-1.5 -2.85,-1.5 -0.45,0 -2.85,-1.65 -5.4,-3.75 -2.4,-2.1 -5.4,-3.75 -6.6,-3.75 -1.2,0 -2.1,-0.9 -2.1,-1.95 0,-1.2 -1.65,-2.85 -3.75,-3.75 -2.1,-0.9 -3.75,-2.4 -3.75,-3.3 0,-0.75 -0.6,-1.5 -1.35,-1.5 -0.75,0 -6.6,-3.6 -13.05,-7.95 -13.35,-9 -39.9,-22.65 -45.6,-23.25 -2.1,-0.3 -6.15,-1.2 -9,-2.25 -6.45,-2.1 -4.95,-1.8 -16.5,-3.15 -5.4,-0.6 -11.4,-1.35 -13.5,-1.65 -12.45,-1.8 -29.7,-1.2 -37.5,1.35 -16.35,5.55 -41.7,18.6 -48,24.9 -1.2,1.2 -3.9,3.15 -6,4.2 -2.1,1.05 -6.45,4.35 -9.75,7.35 -3.3,3 -8.7,7.05 -12,9.15 -6.45,4.05 -22.2,16.8 -22.95,18.75 -0.3,0.6 -1.5,1.05 -2.7,1.05 -1.2,0 -2.1,0.75 -2.1,1.5 0,0.9 -0.9,1.5 -1.95,1.5 -1.2,0 -3.75,1.35 -5.7,3 -13.35,11.4 -28.5,21.75 -36.15,25.2 -2.4,0.9 -4.2,2.25 -4.2,3 0,0.75 -2.85,2.25 -6.3,3.3 -3.6,1.2 -7.05,2.55 -7.95,3.15 -2.7,1.8 -43.2,0.75 -43.8,-1.2 -0.45,-1.05 -1.5,-1.5 -2.7,-1.05 -1.05,0.45 -2.4,0.15 -3,-0.75 -0.45,-0.9 -2.85,-1.65 -5.25,-1.65 -2.4,0 -4.8,-0.6 -5.25,-1.5 -0.45,-0.75 -2.25,-1.5 -3.9,-1.5 -1.65,0 -5.4,-1.5 -8.55,-3.45 -9.45,-5.7 -26.25,-13.05 -28.95,-12.45 -0.45,0 -1.95,-1.05 -3.45,-2.4 -1.5,-1.5 -3.75,-2.7 -5.1,-2.7 -2.25,0 -13.05,-6.3 -15.3,-8.85 -1.35,-1.65 -6.75,-4.8 -14.7,-8.4 -4.35,-2.1 -8.25,-4.8 -8.7,-6 -0.6,-1.2 -1.65,-2.25 -2.4,-2.25 -0.9,0 -3.45,-1.65 -6,-3.75 -2.4,-2.1 -5.4,-3.75 -6.6,-3.75 -3,0 -25.05,-12.15 -26.55,-14.55 -0.6,-1.05 -1.95,-1.95 -2.85,-1.95 -2.1,0 -15.15,-6.45 -16.35,-7.95 -0.45,-0.75 -1.5,-1.35 -2.25,-1.35 -0.75,0 -2.7,-0.6 -4.35,-1.2 -1.65,-0.6 -5.7,-1.95 -9,-2.7 -3.3,-0.9 -10.05,-2.85 -15,-4.35 -6.6,-1.95 -13.95,-2.7 -27,-2.7 -16.05,0.15 -18.75,0.45 -24.75,3.75 -3.75,1.95 -7.35,3.75 -8.25,3.9 -6.6,1.5 -27.6,13.2 -31.5,17.7 -1.65,1.95 -5.25,4.65 -7.8,6 -2.7,1.35 -4.95,3 -5.1,3.6 -0.75,8.1 -0.6,13.8 0.6,16.8 0.75,2.1 1.35,5.25 1.2,7.2 -0.15,4.65 -8.25,15.9 -13.2,18.45 -4.95,2.7 -21.75,2.1 -27.75,-0.9 -2.55,-1.2 -5.25,-2.25 -6,-2.25 -1.35,0 -0.45,19.2 1.05,20.7 1.65,1.65 -5.85,12.6 -10.95,16.05 -5.4,3.6 -7.95,3.9 -23.55,3.6 -7.35,0 -9.45,1.5 -12,9.6 -2.25,7.35 -3,8.1 -11.25,12 -4.8,2.25 -9.9,4.5 -11.55,4.8 -2.85,0.6 -20.25,5.7 -28.2,8.25 -2.4,0.75 -6.9,1.8 -9.75,2.1 -2.85,0.45 -6.9,1.2 -9,1.65 -5.55,1.35 -19.95,3.75 -22.05,3.75 -1.05,0 -2.4,-1.2 -3.15,-2.55 z M 435,1983 c 0,-0.6 4.05,-2.25 9,-3.6 4.95,-1.35 12.9,-4.5 17.85,-6.9 7.2,-3.6 8.7,-4.95 8.4,-7.8 -0.15,-1.95 -0.45,-4.5 -0.6,-5.85 0,-1.35 -2.55,-3.15 -6.15,-4.2 -7.65,-2.25 -11.55,-0.3 -24.9,12.75 -11.55,11.4 -13.65,14.85 -10.05,16.8 2.55,1.5 6.45,0.75 6.45,-1.2 z m 79.8,-33.15 c 2.25,-0.9 4.35,-2.4 4.65,-3.45 1.2,-2.85 -1.65,-17.25 -3.75,-19.5 -1.05,-1.05 -3,-3.6 -4.2,-5.4 -3.3,-4.95 -8.25,-6.15 -23.1,-6.15 -9.45,0 -13.65,0.45 -14.55,1.95 -3.6,5.85 4.35,21.45 15,29.25 4.5,3.3 7.65,4.35 13.8,4.5 4.5,0.15 9.9,-0.45 12.15,-1.2 z m 857.4,-13.5 c 1.95,-0.75 4.5,-2.4 5.7,-3.6 1.35,-1.2 4.35,-2.25 6.75,-2.25 8.55,0 4.35,-9.6 -17.7,-39.75 -9.75,-13.35 -13.2,-15 -26.7,-12.6 -4.05,0.75 -12.6,2.25 -18.75,3.3 -7.8,1.35 -11.25,2.7 -11.25,4.2 0,1.65 3.6,2.1 19.8,2.1 20.7,0 25.35,1.35 21.6,5.7 -1.2,1.5 -6.75,2.55 -17.85,3.15 -13.35,0.9 -16.5,1.65 -18,3.9 -1.35,2.25 -1.05,3 2.85,4.5 5.7,2.4 37.2,1.05 38.85,-1.65 0.9,-1.2 1.5,-0.9 2.1,1.05 1.5,5.25 0,8.85 -3.75,9 -2.1,0 -4.35,0.3 -5.1,0.75 -0.9,0.45 -4.8,0.9 -8.7,1.05 -7.95,0 -11.55,2.1 -11.55,6.75 0,3.15 0.15,3.15 20.25,0 2.55,-0.3 6.3,-0.6 8.55,-0.45 2.25,0 5.4,-1.35 7.05,-3.15 l 3,-3.3 1.65,4.2 c 0.9,2.4 1.35,5.1 0.9,6 -0.3,1.05 -5.25,2.25 -10.8,2.85 -9.9,1.05 -13.95,3.3 -14.1,7.95 0,3.3 16.65,3.45 25.2,0.3 z m -451.8,-2.85 c 12.6,-2.4 28.5,-9.45 34.5,-15.45 3.15,-3 6.9,-6 8.4,-6.45 1.5,-0.45 2.7,-1.5 2.7,-2.4 0,-0.9 -1.35,-1.2 -3.3,-0.45 -5.4,1.65 -15.15,3.9 -19.2,4.35 -2.1,0.3 -5.55,1.2 -7.8,2.1 -2.4,1.05 -4.2,1.35 -4.2,0.9 0,-0.6 -0.9,-0.3 -1.8,0.45 -1.05,0.75 -6,2.4 -10.95,3.45 -4.95,1.2 -9.3,2.55 -9.9,3.3 -0.45,0.6 -4.35,1.5 -8.7,1.95 -6.9,0.6 -7.8,0.45 -7.05,-1.65 0.45,-1.35 0.9,-3.15 0.9,-4.35 0,-1.05 1.5,-1.95 3.45,-1.95 1.8,0 7.35,-0.75 12.3,-1.8 4.95,-0.9 10.8,-1.95 12.9,-2.25 2.1,-0.45 5.85,-1.35 8.25,-2.25 2.4,-1.05 5.55,-1.95 7.05,-2.25 1.35,-0.3 3.6,-1.5 4.65,-2.7 1.2,-1.2 4.2,-3 6.75,-4.05 2.85,-1.05 4.65,-3 4.65,-4.65 0,-2.4 -1.05,-2.7 -9.3,-2.1 -5.25,0.15 -18.75,2.85 -30.3,5.85 -15.6,4.05 -21.3,4.95 -22.8,3.75 -3.15,-2.55 0.15,-7.35 5.1,-7.35 2.25,0 10.8,-1.65 18.9,-3.75 8.1,-2.1 16.05,-3.75 17.55,-3.75 3.6,0 10.35,-6.9 10.35,-10.65 0,-2.55 -0.9,-2.85 -7.5,-2.7 -4.35,0.15 -7.65,1.05 -8.1,2.25 -0.45,1.05 -3.45,1.8 -7.65,1.8 -4.2,-0.15 -7.5,0.6 -8.25,1.8 -0.6,1.05 -1.95,1.35 -2.85,0.9 -0.9,-0.6 -1.65,-0.6 -1.65,0.15 0,0.6 -1.5,1.35 -3.3,1.35 -1.95,0.15 -6,0.75 -9,1.35 -5.1,1.05 -5.7,0.9 -5.7,-1.95 0,-3.45 4.05,-6.3 7.2,-5.25 0.9,0.45 1.8,0 1.8,-0.75 0,-0.75 3,-1.95 6.6,-2.4 6.15,-0.9 14.7,-7.2 12.6,-9.3 -0.45,-0.45 -7.8,0.3 -16.35,1.5 -15.6,2.4 -17.4,2.25 -15.75,-0.3 2.4,-4.05 11.4,-7.5 18.75,-7.2 6.9,0.15 7.65,-0.15 9.3,-3.9 0.9,-2.1 1.2,-5.4 0.6,-7.2 -0.9,-2.7 -1.8,-3 -6.45,-2.1 -3,0.6 -6.15,1.5 -7.05,2.1 -0.75,0.75 -1.95,1.2 -2.7,1.2 -3.15,0.15 -11.55,2.4 -16.95,4.95 -7.05,3.15 -14.55,12.9 -14.55,19.05 0.15,5.4 1.2,11.25 2.4,13.35 0.6,1.05 1.5,4.35 1.8,7.5 1.35,12.15 7.2,28.65 12.9,36.6 l 3.15,4.5 13.05,-0.75 c 7.2,-0.45 16.5,-1.5 20.55,-2.4 z m -52.65,-2.7 c 2.4,-1.65 2.7,-9 0.45,-11.85 -2.25,-3.15 -9,-4.35 -12.6,-2.25 -3.45,1.95 -4.05,9.3 -1.05,12.6 2.4,2.7 10.35,3.6 13.2,1.5 z m 450,-2.1 c 1.35,-5.85 0.3,-9.75 -4.05,-15.75 -2.25,-3.15 -5.4,-8.1 -7.05,-11.1 -3.45,-6.3 -5.4,-7.95 -11.4,-9.9 -6,-1.8 -9.3,-0.9 -10.2,2.85 -0.9,3.3 3,11.7 5.4,11.7 1.95,0 17.4,16.95 17.55,19.05 0,0.9 1.35,2.25 3,2.7 1.65,0.45 3,1.65 3,2.4 0,2.85 3,1.2 3.75,-1.95 z m 93.45,-7.65 c 1.05,-0.9 3.75,-1.8 5.7,-1.95 7.65,-0.9 13.2,-9.6 8.85,-13.95 -2.25,-2.25 -2.7,-2.1 -5.7,1.65 -1.95,2.25 -5.55,4.65 -8.25,5.1 -5.55,1.05 -8.4,5.25 -7.05,9.75 0.9,2.85 2.1,2.7 6.45,-0.6 z m -849.6,-9.75 c 2.4,-4.2 2.1,-11.25 -0.75,-16.8 -3.15,-6.15 -9.6,-13.8 -10.65,-12.6 -0.45,0.3 -3.3,-0.75 -6.3,-2.55 -4.35,-2.55 -6.9,-3 -11.7,-2.25 -3.45,0.6 -6.9,0.3 -7.95,-0.6 -3.45,-2.85 -7.05,5.25 -7.05,15.9 0,8.85 16.2,24 26.7,24.9 6.9,0.6 15.75,-2.4 17.7,-6 z m 275.7,4.65 c 2.25,-2.7 2.7,-11.85 0.6,-15.15 -0.6,-1.05 -1.95,-1.8 -3.15,-1.8 -3.3,0 -9.6,6.3 -10.5,10.65 -0.75,3.3 -0.15,4.2 4.05,6.3 6.15,3.15 6.3,3.15 9,0 z m 566.7,-4.8 c 0,-0.75 1.8,-1.2 3.9,-1.2 4.95,0 6.3,-1.5 6.9,-7.95 0.45,-4.5 0,-5.25 -3,-5.7 -1.95,-0.3 -4.35,0.15 -5.4,1.05 -0.9,0.9 -3.15,1.2 -4.8,0.9 -4.05,-1.05 -14.55,8.25 -13.2,11.7 0.75,1.95 2.7,2.55 8.25,2.55 4.05,0 7.35,-0.6 7.35,-1.35 z m 117.9,-8.85 c 0.9,-1.35 1.35,-4.8 0.9,-7.5 -0.45,-3.75 -1.35,-4.8 -4.05,-4.8 -5.25,0 -8.25,10.35 -4.2,14.25 2.4,2.4 5.1,1.8 7.35,-1.95 z m -84,-5.25 c -0.6,-5.7 -2.1,-7.65 -16.05,-20.85 -14.25,-13.65 -20.7,-17.55 -21,-12.75 0,0.9 -0.3,3.15 -0.6,4.8 -0.75,3.6 4.65,12 9,14.1 1.65,0.75 8.25,6.15 14.85,12 6.45,5.85 12.45,10.2 13.2,9.75 0.75,-0.45 1.05,-3.6 0.6,-7.05 z m 60.15,1.5 c 1.65,-2.85 0.45,-10.5 -2.1,-13.35 -2.25,-2.55 -2.55,-2.4 -5.7,1.8 -3.3,4.5 -3.6,11.55 -0.3,13.65 1.8,1.35 6.75,0 8.1,-2.1 z M 855.6,1891.2 c 1.05,-1.65 1.05,-3.9 0,-6.75 -1.2,-3.6 -2.25,-4.2 -7.05,-4.35 -3.15,-0.15 -6.15,0.6 -6.75,1.5 -1.5,2.4 -2.1,8.4 -1.2,10.95 1.2,3 12.9,1.95 15,-1.35 z m 540.15,0.3 c 0.6,-1.65 0.15,-5.4 -0.75,-8.1 -1.5,-4.8 -1.95,-5.1 -7.2,-4.5 -8.1,1.05 -12.45,7.8 -8.7,13.8 0.6,1.05 4.2,1.8 8.4,1.8 6,0 7.5,-0.6 8.25,-3 z m 74.55,0.15 c 0.6,-0.6 1.5,-3 1.95,-5.4 0.75,-4.05 0.3,-4.8 -4.8,-7.2 -5.4,-2.7 -5.55,-2.7 -7.95,0.45 -2.25,3 -2.4,7.35 -0.75,13.05 0.6,1.95 9.3,1.2 11.55,-0.9 z m -213.3,-6.3 c 0,-2.55 -1.65,-6.15 -4.2,-9 -3.9,-4.5 -4.35,-4.5 -6.75,-2.25 -3.9,3.9 -3,8.55 2.25,13.05 5.85,4.8 8.7,4.2 8.7,-1.8 z m 282,2.4 c 2.25,-2.7 2.4,-10.95 0.3,-13.05 -1.95,-1.95 -7.35,-0.15 -8.4,2.85 -1.35,3.3 1.8,12.45 4.35,12.45 1.05,0 2.7,-1.05 3.75,-2.25 z m -554.4,-4.65 c 2.4,-6.3 -0.3,-15.6 -4.5,-15.6 -3.9,0 -11.1,4.95 -11.1,7.8 0,1.35 0.6,4.2 1.5,6.3 1.2,3.3 2.4,3.9 7.35,3.9 3.9,0 6.15,-0.75 6.75,-2.4 z m 530.1,-1.35 c 3,-0.9 3.3,-1.65 2.55,-5.7 -0.6,-2.7 -1.65,-5.4 -2.25,-6.15 -1.8,-1.8 -9,-2.4 -9,-0.75 0,2.55 -0.3,3.6 -1.65,6 -1.5,2.85 4.35,11.7 6,9.15 0.45,-0.75 2.4,-1.95 4.35,-2.55 z m 45.45,-4.35 c 1.35,-4.95 0.3,-8.4 -2.4,-8.4 -2.1,0 -4.35,4.95 -4.2,9.45 0.15,3.75 0.15,3.75 3,3.45 1.35,-0.3 3,-2.25 3.6,-4.5 z m -112.2,-6.6 c 3.3,-6.75 1.8,-9.3 -5.4,-9.3 -3.45,0 -7.2,0.6 -8.4,1.35 -2.85,1.8 -0.9,9.15 3.3,12.45 3.9,3 7.65,1.5 10.5,-4.5 z m -427.35,2.55 c 4.5,-6.6 -2.55,-15.6 -9.45,-12 -7.5,4.05 -10.65,12.75 -4.95,13.95 7.35,1.65 12.3,1.05 14.4,-1.95 z m 470.1,1.2 c 2.4,-1.65 2.25,-10.8 -0.15,-12.9 -1.2,-0.9 -4.05,-2.1 -6.6,-2.55 -5.25,-1.05 -6,0.3 -5.85,9.15 0.15,4.95 0.75,6 3.9,6.75 4.5,1.2 6.15,1.05 8.7,-0.45 z m -643.95,-8.4 c -0.15,-2.25 -0.75,-4.8 -1.2,-5.7 -1.2,-1.95 -8.85,-3.75 -18,-4.2 -6.9,-0.3 -7.35,-0.15 -9.6,4.65 -3,6 -0.9,9.45 5.25,9.45 2.25,-0.15 7.8,0.45 12.3,1.2 9.6,1.65 11.85,0.45 11.25,-5.4 z m -260.7,2.55 c 5.7,-5.4 4.35,-12.15 -2.85,-12.9 -4.95,-0.6 -7.65,3.75 -6.3,9.75 1.8,7.65 3.6,8.4 9.15,3.15 z m 371.85,-3.75 c 4.2,-4.2 4.35,-4.8 1.2,-9.15 -1.8,-2.55 -3.6,-3.3 -7.05,-3 -4.5,0.45 -4.8,0.75 -5.25,7.5 -0.45,5.85 0.15,7.35 3,9.3 2.55,1.8 3.6,1.95 4.05,0.6 0.3,-0.9 2.25,-3.3 4.05,-5.25 z m -208.5,-7.05 c -1.2,-6 -4.8,-9.75 -8.55,-8.85 -6.75,1.8 -6.6,14.55 0.3,18 3.15,1.65 3.9,1.5 6.3,-1.35 1.95,-2.4 2.55,-4.65 1.95,-7.8 z m 247.2,5.55 c 2.7,1.05 9.9,-7.05 9.9,-11.1 0,-3.6 -5.1,-8.85 -8.55,-8.85 -4.2,0 -12.45,5.7 -13.95,9.6 -0.75,1.95 -0.9,4.95 -0.45,6.6 0.9,3.75 6.45,6.45 9,4.5 1.05,-0.9 2.85,-1.2 4.05,-0.75 z m 251.85,-0.9 c 0.6,-1.05 0.9,-3.75 0.75,-6.3 -0.45,-4.2 -0.9,-4.5 -6.45,-4.5 -5.7,0 -6,0.3 -6.45,4.95 -0.6,6.6 2.1,9.75 7.05,8.55 2.1,-0.6 4.35,-1.8 5.1,-2.7 z m -210.45,-6.3 c 0,-5.25 -4.05,-12.75 -6.9,-12.75 -1.2,0 -4.2,-1.95 -6.6,-4.5 -2.4,-2.4 -5.1,-4.5 -5.85,-4.5 -0.9,0 -3.9,-1.95 -6.6,-4.5 -2.85,-2.4 -6.45,-4.5 -7.95,-4.5 -1.65,0 -4.2,-1.05 -5.7,-2.25 -4.2,-3.15 -13.05,-2.7 -21.45,1.05 -3.9,1.8 -7.8,3.3 -8.7,3.45 -0.75,0 -2.4,0.6 -3.45,1.35 -1.2,0.6 -2.7,0.6 -3.45,-0.15 -1.8,-1.8 0.15,-7.95 2.55,-7.95 1.2,0 2.1,-0.6 2.1,-1.35 0,-0.6 3,-4.35 6.6,-8.1 6,-6 6.45,-7.05 4.65,-9.6 -1.95,-2.55 -2.1,-2.55 -4.8,0 -1.5,1.5 -7.2,6 -12.75,10.2 -6.9,5.1 -10.2,8.55 -10.8,11.4 -1.35,6.45 -0.45,8.55 5.1,13.5 12.3,10.5 16.35,11.55 23.4,6.15 4.8,-3.9 17.85,-10.2 21,-10.2 1.05,0 2.7,1.35 3.6,3 0.9,1.65 6.45,6.75 12.45,11.55 5.85,4.8 11.25,9.3 11.85,10.2 0.75,0.9 1.2,0.9 1.2,0.15 0,-0.9 0.75,-0.75 1.8,0.3 1.05,1.05 3.3,1.8 5.25,1.8 2.7,0 3.45,-0.9 3.45,-3.75 z m 430.95,1.05 c 1.8,-2.1 1.95,-3.45 0.45,-7.8 -2.85,-9 -10.95,-7.2 -12.15,2.55 -0.3,2.25 0.15,4.95 0.75,5.7 2.1,2.55 8.4,2.4 10.95,-0.45 z m -100.5,-4.2 c 4.05,-4.35 3.9,-8.85 -0.45,-10.05 -2.4,-0.6 -4.05,1.35 -5.1,6.75 0,0.45 -0.6,1.35 -1.2,1.95 -1.2,1.35 0.15,5.25 1.95,5.25 0.6,0 2.85,-1.8 4.8,-3.9 z m 56.85,-5.25 c -0.75,-11.85 -6.75,-13.05 -8.25,-1.65 -0.9,7.65 1.05,11.1 5.4,9.45 2.85,-1.2 3.3,-2.25 2.85,-7.8 z m -197.1,1.35 c 1.05,-1.5 3.45,-2.7 5.25,-2.7 1.8,0 5.85,-1.65 8.85,-3.75 3,-2.1 6.3,-3.75 7.35,-3.75 1.05,0 3,-1.05 4.35,-2.25 1.5,-1.35 4.05,-2.55 5.7,-3 1.8,-0.3 5.25,-2.1 7.65,-3.9 7.35,-5.4 6.3,-9.3 -6.3,-23.1 -5.85,-6.6 -12.6,-14.4 -14.85,-17.25 -3,-3.9 -4.5,-4.8 -5.85,-3.45 -1.8,1.8 1.95,10.5 11.7,26.1 5.1,8.55 5.7,13.35 1.5,13.35 -1.05,0 -5.25,-4.5 -9.45,-10.05 -8.1,-11.25 -19.8,-22.95 -22.8,-22.95 -2.7,0 -4.8,6.15 -3,9.45 0.75,1.35 1.05,2.55 0.6,2.55 -0.45,0 1.95,6.45 5.25,14.4 6.45,16.05 7.5,26.1 2.7,26.1 -3.6,0 -13.35,-4.65 -13.35,-6.45 0,-0.75 -1.05,-1.05 -2.25,-0.45 -1.35,0.45 -2.85,-0.45 -3.75,-2.1 -0.9,-1.65 -4.35,-3.6 -7.95,-4.65 -3.45,-0.9 -7.5,-2.7 -8.85,-3.9 -1.5,-1.35 -3.75,-1.8 -5.7,-1.2 -2.55,0.75 -3.15,1.95 -2.7,6.3 0.3,3 1.5,5.85 2.7,6.45 1.2,0.6 3.6,1.8 5.4,2.55 6.3,3.3 26.4,10.95 28.5,10.95 1.2,0 2.1,0.75 2.1,1.65 0,1.95 4.2,-0.9 7.2,-4.95 z M 615,1847.85 c 0,-1.5 -1.35,-3.45 -3,-4.35 -3.15,-1.65 -4.05,-5.25 -1.65,-6.6 0.75,-0.45 7.05,0.6 14.1,2.4 l 12.9,3.45 3.6,-3.45 c 2.1,-1.95 6,-6.75 8.7,-10.8 l 4.95,-7.2 h 9 c 5.1,0 10.05,0.75 11.25,1.65 1.2,1.05 4.95,6.3 8.55,11.7 8.55,13.35 16.2,17.7 30.3,17.4 9.3,-0.3 10.35,-0.6 15,-5.4 2.55,-2.7 4.8,-5.85 4.95,-6.75 0,-0.9 0.3,-3.3 0.6,-5.4 1.2,-11.1 -8.55,-19.2 -20.85,-17.25 -9.75,1.65 -11.4,3 -10.8,9.15 0.6,7.35 3.15,8.4 10.95,4.65 6.45,-3.15 6.75,-3.15 8.7,-0.45 2.7,3.6 0.45,7.2 -6.15,10.35 -4.65,2.25 -5.1,2.25 -11.7,-2.1 -3.9,-2.4 -7.5,-5.85 -8.25,-7.65 -0.75,-1.95 -2.55,-6.15 -3.9,-9.45 -1.5,-3.3 -2.85,-6.3 -2.85,-6.75 -0.15,-0.45 -1.2,-2.1 -2.4,-3.9 -3.75,-5.25 -22.5,-8.1 -28.65,-4.2 -0.9,0.6 -2.85,1.2 -4.2,1.35 -7.95,0.75 -10.8,3 -16.2,11.85 -3,4.95 -5.7,9.45 -6,9.75 -0.15,0.3 -1.8,-0.6 -3.45,-2.1 -4.35,-3.9 -16.65,-4.05 -20.85,-0.15 -2.55,2.4 -3.15,4.65 -3.15,13.2 0,9.3 0.3,10.35 3.45,11.55 3.9,1.5 7.05,-0.45 7.05,-4.5 z m 325.2,2.25 c 6,-4.05 1.2,-14.1 -6.75,-14.1 -2.4,0 -3.45,0.9 -3.45,2.85 0,1.65 -0.45,3.9 -0.9,5.1 -0.75,2.25 4.05,8.55 6.6,8.55 0.6,0 2.7,-1.05 4.5,-2.4 z m -173.85,-8.85 c -0.15,-4.5 -0.9,-8.4 -1.5,-8.4 -6.75,-1.05 -10.35,1.2 -10.35,6.15 0,4.95 5.1,9.75 10.8,10.35 0.75,0.15 1.05,-3.6 1.05,-8.1 z m -96.45,4.05 c 2.55,-1.65 3.75,-8.7 2.25,-12.75 -1.95,-5.1 -5.7,-6 -9.15,-2.55 -3.6,3.6 -3,11.55 1.05,14.7 2.85,2.1 3.6,2.1 5.85,0.6 z m 383.4,-9 c 1.05,-4.35 -6.45,-15.3 -10.35,-15.3 -1.05,0 -1.95,-0.6 -1.95,-1.5 0,-0.75 -0.75,-1.5 -1.65,-1.5 -1.8,0 -15.45,-9 -16.05,-10.8 -0.3,-0.6 -1.35,-1.2 -2.4,-1.2 -1.05,0 -3.75,-1.65 -6,-3.75 -2.25,-2.1 -4.65,-3.75 -5.55,-3.75 -0.75,0 -3.45,-1.5 -5.85,-3.15 -5.1,-3.9 -9,-2.85 -9,2.25 0,7.5 1.95,9.9 16.65,20.4 1.8,1.2 4.35,3.45 5.55,4.95 1.35,1.35 3.15,2.55 3.9,2.55 0.75,0 3.45,1.5 6,3.45 4.5,3.45 15.75,9.15 20.4,10.5 3.3,0.9 5.7,-0.3 6.3,-3.15 z m 112.2,-3.45 c 0,-6 -1.65,-7.35 -8.85,-7.35 -2.25,0 -4.8,-0.75 -5.85,-1.8 -1.35,-1.35 -1.8,-1.35 -1.8,0 0,1.2 -1.8,1.05 -6.6,-0.3 -3.75,-1.2 -7.05,-1.65 -7.5,-1.2 -0.6,0.45 -0.9,0.15 -0.9,-0.6 0,-2.1 -24.75,-2.55 -30.45,-0.75 -4.35,1.5 -4.95,2.25 -4.35,5.4 0.3,2.1 1.35,4.2 2.1,4.65 0.75,0.45 8.4,1.05 16.95,1.35 8.55,0.15 16.2,0.9 17.1,1.35 0.75,0.6 5.7,1.35 10.95,1.95 5.25,0.45 10.5,1.35 11.7,1.95 4.95,2.7 7.5,1.05 7.5,-4.65 z m 256.05,1.2 c 1.65,-1.65 -3.15,-13.05 -5.85,-13.95 -4.5,-1.35 -9.45,2.85 -9.45,7.8 0,6.75 1.8,8.25 8.55,7.5 3.3,-0.3 6.3,-1.05 6.75,-1.35 z m -204,-4.95 c 1.95,-5.25 -6.9,-21.6 -11.7,-21.6 -3.45,0 -7.35,4.95 -7.35,9.15 0,3.45 1.35,4.95 6.75,8.25 3.75,2.1 6.75,4.5 6.75,5.25 0,2.25 4.5,1.5 5.55,-1.05 z M 1086,1818.45 c 5.4,-4.8 12.6,-11.55 16.05,-14.85 4.95,-4.8 7.2,-6 10.2,-5.4 2.1,0.3 3.75,1.2 3.75,1.95 0,0.75 0.45,1.2 1.2,1.05 0.6,-0.15 4.05,1.2 7.5,3.15 3.6,1.8 7.5,3 8.7,2.55 2.4,-0.9 2.85,-5.4 0.6,-5.4 -0.75,0 -1.5,-0.9 -1.5,-1.95 0,-1.05 -1.95,-3.15 -4.5,-4.5 -2.7,-1.65 -4.5,-3.9 -4.5,-5.85 0,-3.75 20.1,-23.55 35.55,-35.1 11.7,-8.7 16.95,-14.55 16.95,-18.6 0,-2.85 -3.9,-5.25 -5.25,-3 -0.45,0.6 -3.6,2.7 -7.2,4.35 -7.2,3.6 -44.4,33.15 -56.25,44.85 -4.35,4.2 -8.85,7.8 -9.9,7.8 -1.05,0 -3.75,-1.35 -5.85,-3 -2.1,-1.65 -5.1,-3 -6.6,-3 -1.5,0 -3.6,-0.75 -4.35,-1.5 -2.4,-2.4 -9.9,-6.6 -28.95,-15.9 -16.05,-7.8 -17.25,-8.25 -21.75,-6.45 -5.7,2.4 -18,15 -20.55,21 -1.95,5.1 0,11.85 3.6,11.85 1.05,0 7.2,-5.1 13.5,-11.25 6.45,-6.15 12.15,-11.25 12.9,-11.25 2.25,0 3.15,4.5 1.65,7.5 -0.9,1.65 -3,3.75 -4.65,4.65 -1.8,0.9 -4.5,4.65 -6.15,8.25 -2.7,6.3 -2.7,7.05 -0.6,10.5 1.35,1.95 2.85,3.6 3.15,3.6 0.45,0 6.3,-5.1 12.9,-11.4 11.25,-10.35 16.05,-12.9 17.4,-8.7 0.3,0.9 -1.2,3.9 -3.15,6.75 -11.55,15.75 -11.7,16.05 -10.65,20.7 1.8,8.4 10.95,4.95 26.25,-9.75 12.45,-12.15 15,-5.85 3,7.8 -6.9,7.8 -9.15,13.5 -6.45,16.05 2.1,2.1 4.65,0.75 13.95,-7.5 z m 87.45,-3.6 c 5.55,-2.55 9,-4.95 15.15,-10.8 3.3,-3 6.9,-5.55 8.1,-5.55 1.05,0 5.7,-3.6 10.35,-7.8 4.65,-4.35 10.05,-9.45 12.15,-11.4 3.15,-3 3.6,-4.5 2.85,-10.5 -0.6,-6.15 -1.65,-7.95 -8.85,-14.1 -9.3,-8.25 -21.75,-15.3 -23.1,-13.05 -2.25,3.75 1.05,11.4 7.5,16.65 6.75,5.7 8.85,9.9 6.9,13.35 -0.9,1.35 -2.55,0.75 -6.6,-2.85 -5.55,-4.8 -22.65,-16.8 -24,-16.8 -0.6,0 -0.9,1.65 -0.9,3.75 0,4.95 5.25,12.15 12,16.2 6.45,3.9 7.35,5.1 6.45,8.7 -1.05,4.05 -2.7,3.6 -10.95,-2.4 -3.9,-2.85 -7.65,-5.25 -8.25,-5.25 -0.75,0 -3.45,-1.8 -6.3,-3.9 -2.85,-2.1 -6.15,-3.45 -7.35,-3 -3.45,1.35 -1.2,10.05 3.6,14.25 16.5,14.4 18.15,16.65 14.55,19.65 -1.05,0.9 -2.55,1.5 -3.15,1.35 -0.75,-0.3 -5.25,0.15 -9.9,0.75 -7.95,1.2 -8.7,1.65 -8.7,4.95 0,1.95 -0.75,4.95 -1.5,6.45 -1.2,2.25 -0.9,3.6 1.35,5.85 3,3 3,3 9.15,0 3.3,-1.65 7.5,-3.6 9.45,-4.5 z m 295.65,0.15 c 6.9,-10.5 3.75,-18.75 -4.8,-12.45 -3.15,2.4 -4.05,4.35 -4.35,10.65 -0.45,6.9 -0.15,7.8 2.25,7.8 1.65,0 4.5,-2.55 6.9,-6 z m -37.65,-4.8 c 2.55,-3.45 2.7,-4.35 0.9,-8.4 -2.25,-5.1 -5.1,-6.45 -10.05,-4.65 -2.55,1.05 -3.3,2.4 -3.3,6.6 0,11.4 6.3,14.7 12.45,6.45 z m -269.55,-14.4 c 1.05,-0.6 1.2,-2.7 0.3,-5.85 -0.9,-3.6 -2.85,-5.55 -9,-8.55 -11.1,-5.55 -12.75,-3.6 -10.35,12.3 0.15,0.3 2.1,0.15 4.65,-0.45 3,-0.6 5.55,-0.15 7.8,1.35 3.75,2.7 4.35,2.85 6.6,1.2 z m 288.45,-11.4 c 3.3,-3.9 -0.15,-15.9 -4.35,-15.9 -5.55,0 -9.45,10.35 -5.4,14.85 2.85,3.15 7.65,3.6 9.75,1.05 z m 30.45,-5.7 c 3.3,-2.7 4.8,-10.5 2.4,-13.5 -2.25,-2.85 -6.75,-3.75 -10.95,-1.95 -3.9,1.65 -5.25,3.6 -5.25,8.4 0,5.1 2.25,6.9 10.65,8.7 0.45,0 1.8,-0.75 3.15,-1.65 z m -384.9,-7.95 c 21.75,-8.7 31.8,-17.25 29.7,-25.35 -1.35,-5.4 -6.15,-5.1 -19.5,1.5 -12,6 -23.25,16.5 -22.35,21 0.3,1.65 0.6,3.3 0.6,4.05 0.15,1.8 5.4,1.2 11.55,-1.2 z m 407.55,-5.1 c 1.95,-0.3 0.75,-15.15 -1.5,-16.8 -2.55,-2.25 -10.5,0.9 -11.7,4.65 -1.8,5.85 4.05,13.8 9.6,12.75 1.35,-0.3 2.85,-0.6 3.6,-0.6 z m -438.15,-9.9 c 11.55,-4.2 15.75,-11.4 9.6,-17.1 -3,-2.85 -3.6,-2.85 -7.5,-0.9 -2.4,1.2 -4.95,2.25 -5.7,2.25 -0.75,0 -3.6,1.65 -6.15,3.75 -4.2,3 -4.8,4.5 -4.65,9.3 0.15,3.15 0.45,5.85 0.45,6 0.45,0.6 7.65,-1.2 13.95,-3.3 z m 464.7,-18.3 c 6,-10.35 -0.3,-19.95 -13.8,-21.15 -7.5,-0.6 -8.1,-0.3 -10.5,3.75 -4.35,7.5 -4.8,14.25 -1.2,18.75 2.7,3.6 3.9,4.05 12.75,3.9 9.45,-0.15 9.75,-0.3 12.75,-5.25 z m -435.75,0 c 11.55,-0.9 12.3,-1.65 13.05,-11.7 0.45,-7.05 0.3,-7.5 -3.3,-7.65 -4.35,-0.3 -19.5,6.15 -21.3,8.85 -2.85,4.65 1.5,14.4 5.4,12 0.9,-0.6 3.75,-1.35 6.15,-1.5 z m 52.35,-0.45 c 3.15,-1.2 3.9,-2.4 3.9,-6.6 0,-6.6 -3.9,-9.45 -12.15,-9.15 -6,0.3 -9.15,2.55 -8.1,5.85 0.3,0.9 0.9,3.45 1.35,5.7 0.75,3.15 1.95,4.2 5.85,4.65 2.55,0.3 4.95,0.75 5.1,0.75 0.15,0.15 1.95,-0.3 4.05,-1.2 z"
       id="path1" />
    <path
       d="m 498.45,1938 c -8.1,-4.65 -14.55,-11.4 -13.05,-13.8 2.85,-4.65 23.1,6.9 23.1,13.05 0,5.4 -1.65,5.55 -10.05,0.75 z"
       id="path2" />
    <path
       d="m 546,1905.6 c -2.85,-1.95 -6,-4.05 -6.9,-4.8 -0.9,-0.75 -3,-1.8 -4.65,-2.4 -3,-0.9 -6.45,-6.6 -6.45,-10.8 0,-1.65 0.9,-2.1 3.45,-1.35 11.7,3.6 22.05,12 22.05,18 0,5.1 -1.5,5.4 -7.5,1.35 z"
       id="path3" />
    <path
       d="m 1512.15,1735.5 c -2.1,-0.45 -3.9,-1.65 -4.2,-2.55 -1.05,-3 5.25,-7.95 9.9,-7.95 3.45,0 4.5,0.9 5.25,3.75 0.6,2.1 0.6,4.5 0.15,5.1 -1.05,1.8 -6.9,2.7 -11.1,1.65 z"
       id="path4" />
    <path
       d="m 256.5,1994.85 c -2.25,-1.5 -53.25,-18.75 -59.85,-20.1 -1.95,-0.45 -5.55,-1.95 -7.8,-3.15 -2.4,-1.2 -4.8,-2.25 -5.4,-2.25 -3,-0.45 -4.95,-1.05 -16.2,-4.95 -6.6,-2.4 -16.05,-5.4 -21,-6.75 -4.95,-1.5 -11.4,-3.75 -14.25,-4.95 l -5.25,-2.1 -0.3,-174.75 c -1.2,-465.15 -0.9,-704.1 0.6,-703.8 4.95,1.05 9.15,1.95 12.45,2.7 3.75,1.05 8.55,1.95 14.25,2.85 1.65,0.3 3,0.75 3,0.9 0,0.15 1.35,0.6 3,0.9 16.8,3 21,3.9 23.4,5.1 1.5,0.9 3.3,1.35 3.9,1.35 0.6,-0.15 2.25,0 3.45,0.6 1.2,0.45 4.65,1.2 7.5,1.65 2.85,0.45 6.9,1.2 9,1.65 2.1,0.6 4.8,1.05 6,1.05 1.2,0 3,0.6 3.75,1.2 0.9,0.6 4.95,1.65 9,2.25 4.2,0.75 8.55,1.5 9.75,1.8 1.2,0.3 3.6,0.75 5.25,1.05 1.65,0.15 5.4,1.2 8.25,1.95 2.85,0.9 7.05,2.1 9.3,2.55 3.9,0.9 4.05,1.05 4.05,13.35 0,16.5 0,16.05 1.8,16.05 0.9,0 5.4,-3.6 10.05,-7.95 13.95,-13.05 24.15,-21 40.8,-32.25 15.3,-10.2 39.15,-22.5 46.2,-23.7 1.95,-0.45 7.35,-1.8 12,-3 10.95,-3 15.15,-3.6 28.05,-3.75 12.6,-0.3 13.8,0 26.55,6 25.5,12.15 68.55,46.65 114.45,91.95 16.95,16.65 26.25,24.9 27.75,24.3 1.2,-0.45 7.35,-6.9 13.5,-14.25 22.95,-27.45 54.45,-57.15 79.5,-74.85 17.55,-12.45 49.95,-28.2 60,-29.25 1.2,-0.15 3.6,-0.75 5.25,-1.2 12.15,-4.05 33.15,-3.9 47.55,0.45 21.75,6.45 66.3,41.4 120.3,94.5 46.2,45.45 69.9,73.2 80.25,93.75 4.95,9.75 6.45,16.8 7.2,33 2.25,51.9 3.6,346.05 1.65,348 -0.6,0.6 -1.95,0.45 -3,-0.15 -1.95,-1.35 -3.9,-1.8 -9.45,-2.55 -1.8,-0.3 -3.9,-0.9 -4.8,-1.5 -1.05,-0.6 -4.2,-1.2 -7.2,-1.35 -3,-0.15 -5.7,-0.75 -6.15,-1.5 -0.45,-0.6 -1.5,-0.9 -2.25,-0.3 -0.75,0.45 -2.25,0.15 -3.3,-0.6 -1.05,-0.75 -4.5,-1.8 -7.8,-2.4 -3.3,-0.6 -7.65,-1.35 -9.75,-1.8 -2.1,-0.3 -5.1,-0.9 -6.75,-1.2 -1.65,-0.3 -3.3,-0.75 -3.75,-0.9 -0.45,-0.3 -1.35,-0.6 -2.25,-0.75 -10.65,-1.8 -15.3,-2.85 -16.5,-3.75 -0.75,-0.6 -2.55,-1.2 -3.75,-1.2 -1.2,-0.15 -10.05,-1.8 -19.5,-4.05 -9.45,-2.1 -19.2,-4.2 -21.75,-4.65 -5.4,-1.05 -6.9,-2.25 -6.9,-6 0,-1.5 0.45,-37.65 0.9,-80.1 2.4,-172.05 0.9,-280.5 -4.35,-313.05 -1.95,-12.75 -16.65,-27.45 -31.65,-31.5 -4.35,-1.2 -23.1,-1.2 -29.1,0.15 -34.35,7.05 -90.6,49.65 -144.15,109.05 l -11.55,12.75 0.6,21.75 c 0.9,31.35 1.5,312.3 0.75,314.4 -0.45,1.35 -1.35,1.5 -3.3,0.45 -1.35,-0.75 -3,-1.05 -3.45,-0.6 -0.45,0.45 -1.8,0.3 -2.85,-0.3 -1.05,-0.75 -2.55,-1.35 -3.45,-1.35 -4.2,-0.3 -16.65,-2.7 -18,-3.45 -0.75,-0.45 -2.4,-1.05 -3.75,-1.2 -1.2,-0.15 -3.9,-0.75 -6,-1.35 -2.1,-0.6 -5.7,-1.2 -8.25,-1.65 -2.4,-0.3 -6.6,-1.35 -9.15,-2.1 -4.5,-1.5 -8.85,-2.55 -14.85,-3.75 -1.65,-0.3 -4.65,-1.05 -6.75,-1.5 -2.1,-0.6 -6.45,-1.5 -9.75,-1.8 -3.3,-0.45 -6.6,-1.35 -7.5,-1.95 -0.75,-0.75 -3.9,-1.35 -6.75,-1.65 -2.85,-0.3 -5.85,-0.75 -6.75,-1.2 -1.5,-0.9 -1.8,-0.9 -8.25,-2.25 -2.1,-0.45 -6.6,-1.5 -10.05,-2.55 l -6.15,-1.65 0.75,-62.55 c 2.4,-176.7 0.6,-302.25 -4.5,-333.9 -2.1,-12.9 -18.6,-27.45 -36.3,-31.95 -6.15,-1.5 -23.1,-1.5 -25.8,0.15 -0.75,0.45 -3.6,1.35 -6.3,1.8 -2.55,0.45 -8.55,2.7 -13.35,5.1 -30.15,15 -62.25,39.45 -96.3,73.65 -18.75,18.6 -46.05,49.5 -50.85,57.3 -2.4,3.75 -2.55,15.75 -2.1,144.75 0.15,77.4 0.75,174.45 1.35,215.7 1.2,87 1.35,255.9 0.3,296.25 -0.75,28.95 -1.2,30.75 -7.2,26.85 z"
       id="path5" />
    <path
       d="m 2855.25,1899.9 c -2.55,-1.05 -10.95,-3.9 -18.75,-6.15 -7.8,-2.25 -14.85,-4.5 -15.75,-4.95 -0.75,-0.6 -2.85,-1.2 -4.35,-1.35 -1.65,-0.3 -3.75,-1.2 -4.65,-1.95 -0.9,-0.75 -3.3,-1.8 -5.4,-2.1 -1.95,-0.45 -3.6,-0.75 -3.6,-0.9 0,-0.15 -1.65,-0.45 -3.6,-0.9 -2.1,-0.3 -4.5,-1.35 -5.7,-2.25 -1.05,-0.9 -1.95,-1.35 -1.95,-0.75 0,0.6 -1.95,0 -4.35,-1.35 -2.55,-1.2 -5.7,-2.55 -7.2,-2.7 -1.5,-0.3 -3.75,-1.05 -4.95,-1.5 -1.2,-0.45 -6.6,-2.25 -12,-3.9 -8.7,-2.55 -16.35,-5.1 -28.65,-9.45 -2.85,-1.05 -4.2,-2.7 -4.65,-5.7 -1.05,-6.6 0.9,-249 2.25,-288.45 0.45,-10.5 0.15,-19.35 -0.45,-19.8 -0.6,-0.45 -8.55,6.15 -17.4,14.4 -28.2,26.25 -57,48.15 -76.35,58.05 -9.75,4.95 -20.25,9.75 -22.05,10.2 -0.75,0.15 -1.35,0.3 -1.5,0.6 -0.3,0.15 -1.5,0.45 -2.7,0.75 -1.2,0.3 -3.9,1.05 -6,1.5 -8.55,2.1 -14.7,2.85 -21.75,2.55 -7.05,-0.15 -15,-1.05 -15,-1.65 0,-0.3 -1.5,-0.6 -3.45,-1.05 -4.65,-0.9 -23.55,-10.95 -35.1,-18.75 -29.4,-20.1 -70.95,-64.05 -110.1,-116.85 -8.1,-10.95 -26.1,-37.5 -26.1,-38.55 0,-0.45 -1.2,-2.55 -2.85,-4.65 -6.45,-9.15 -18.3,-34.2 -20.4,-43.35 -0.45,-1.5 -1.2,-5.1 -1.95,-7.95 -1.2,-5.1 -1.2,-16.5 0,-21 0.45,-1.2 1.8,-4.8 3.15,-8.1 1.35,-3.15 2.55,-6.15 2.55,-6.6 0,-1.5 11.1,-14.7 17.1,-20.25 10.65,-9.75 41.1,-28.95 52.65,-33 3.3,-1.2 8.1,-3.3 10.5,-4.5 4.65,-2.4 12.6,-5.85 14.7,-6.45 0.6,-0.15 1.2,-0.3 1.5,-0.45 0.15,-0.3 1.95,-0.6 3.9,-1.05 2.1,-0.3 4.35,-1.2 5.25,-1.95 2.4,-1.8 11.4,-4.8 16.5,-5.55 2.4,-0.3 5.1,-1.2 6.15,-2.1 0.9,-0.75 2.1,-1.2 2.55,-0.75 0.3,0.45 6,-1.05 12.45,-3 6.45,-2.1 12.9,-3.75 14.55,-3.75 1.5,0 6.75,-1.35 11.55,-3 4.95,-1.65 14.85,-4.05 22.2,-5.4 16.8,-3 15.9,-2.85 17.7,-3.9 0.9,-0.45 5.1,-1.35 9.6,-1.8 4.35,-0.6 8.7,-1.35 9.45,-1.8 0.9,-0.6 3.6,-1.2 6.15,-1.5 2.7,-0.3 6.45,-0.9 8.55,-1.35 2.1,-0.45 5.4,-1.2 7.5,-1.65 2.1,-0.3 5.4,-1.05 7.5,-1.5 4.8,-1.2 9.9,-1.95 16.5,-2.85 2.85,-0.3 7.35,-0.9 9.75,-1.35 2.55,-0.6 6.6,-1.2 9,-1.5 2.55,-0.45 6.6,-1.05 9,-1.65 4.35,-0.9 9.45,-1.5 23.1,-2.85 3.6,-0.45 9,-1.05 12,-1.5 10.95,-1.65 19.05,-2.7 21.75,-3 2.4,-0.15 2.85,-1.8 3.6,-12.15 1.2,-19.65 0.75,-34.35 -1.05,-37.5 -0.45,-0.75 -0.9,-1.8 -1.05,-2.25 -2.7,-13.95 -13.5,-26.1 -28.35,-31.8 -4.8,-1.8 -9.9,-3.45 -11.25,-3.6 -1.2,-0.3 -6.15,-1.05 -10.8,-1.8 -4.65,-0.6 -11.1,-1.05 -14.25,-0.9 -7.95,0.6 -22.65,2.1 -28.95,2.85 -2.85,0.45 -7.95,1.05 -11.25,1.65 -3.3,0.45 -7.65,0.9 -9.75,1.2 -2.1,0.15 -5.25,0.9 -6.9,1.5 -1.8,0.6 -5.55,1.35 -8.25,1.8 -8.85,1.5 -11.1,1.8 -11.1,2.1 0,0.15 -1.35,0.45 -3,0.75 -9.45,1.8 -37.05,8.25 -38.55,9.15 -0.9,0.6 -3.15,1.2 -4.8,1.5 -8.85,1.35 -13.8,2.55 -15.15,3.6 -0.75,0.6 -3.9,1.5 -6.75,2.1 -5.4,0.9 -6.6,1.2 -10.5,2.85 -1.2,0.6 -3.75,1.2 -5.55,1.5 -1.8,0.3 -3.9,0.9 -4.35,1.5 -0.6,0.6 -2.55,1.05 -4.35,1.05 -1.95,0 -5.85,1.05 -8.85,2.25 -3,1.2 -5.4,1.8 -5.4,1.35 0,-0.6 -0.9,-0.15 -1.95,0.75 -1.2,0.9 -2.4,1.35 -2.85,0.9 -0.3,-0.45 -4.5,0.6 -9.15,2.25 -4.65,1.65 -9.75,3.3 -11.1,3.6 -1.5,0.15 -4.65,1.2 -7.2,2.25 -6.15,2.55 -19.95,4.95 -21.75,3.9 -0.9,-0.45 -1.5,-1.65 -1.5,-2.55 0,-1.35 -23.25,-41.4 -33.75,-58.2 -1.8,-2.85 -6.15,-10.35 -9.75,-16.5 -3.6,-6.15 -7.8,-12.9 -9.3,-14.85 -3,-3.9 -2.1,-5.85 2.7,-6.75 2.4,-0.6 39.75,-9.15 44.85,-10.35 0.9,-0.15 2.4,-0.9 3.45,-1.65 1.05,-0.6 2.4,-0.9 2.7,-0.45 0.45,0.45 5.25,-0.45 10.8,-2.1 5.4,-1.5 12.3,-3.15 15.15,-3.45 3,-0.45 6.75,-1.05 8.4,-1.5 1.65,-0.3 8.7,-1.95 15.75,-3.6 7.05,-1.65 15.15,-3.45 18,-3.9 2.85,-0.45 6.9,-1.2 9,-1.65 2.1,-0.45 7.5,-1.5 12,-2.25 12.45,-2.1 14.1,-2.4 16.5,-3.45 1.2,-0.6 4.95,-1.2 8.25,-1.65 3.3,-0.3 7.65,-1.05 9.75,-1.65 2.1,-0.45 6.45,-1.2 9.75,-1.65 7.65,-1.05 9.9,-1.5 12.75,-2.55 1.2,-0.45 3.3,-0.75 4.5,-0.9 1.2,0 4.65,-0.45 7.5,-0.9 2.85,-0.45 7.35,-1.05 9.75,-1.35 2.55,-0.3 6,-0.9 7.8,-1.5 1.8,-0.6 6.15,-1.35 9.75,-1.8 11.1,-1.2 16.8,-1.95 21.45,-3 2.55,-0.45 10.65,-0.9 18,-1.05 12.15,0 14.55,0.45 23.55,4.65 21,10.05 54.75,39 107.7,92.7 32.7,33.15 51,53.55 66.9,74.1 10.35,13.5 10.2,13.2 12,24.45 0.3,2.25 1.05,6.3 1.5,9 3.45,19.8 3.3,126 -0.3,259.8 -1.65,61.35 -2.25,119.85 -2.55,225 -0.15,61.05 -0.45,120.9 -0.75,133.2 -0.3,24.45 -0.3,24.3 -10.05,19.95 z m -303,-388.65 c 2.55,-0.3 8.55,-1.05 13.5,-1.65 4.95,-0.45 9.75,-1.35 10.5,-1.8 0.9,-0.6 2.25,-1.05 3,-1.05 1.8,0 26.85,-7.8 33,-10.2 2.55,-0.9 4.8,-1.8 5.25,-1.8 6.9,-0.75 48.45,-21.3 66.75,-33 4.65,-2.85 8.55,-5.25 9,-5.25 0.75,0 19.95,-13.05 31.95,-21.6 4.35,-3.15 8.4,-6.9 9,-8.25 0.75,-1.35 1.2,-23.7 1.2,-49.65 -0.15,-46.2 -0.15,-47.25 -3.15,-47.25 -1.65,0 -4.8,0.75 -7.05,1.95 -2.1,1.05 -6.45,2.25 -9.6,2.7 -3,0.3 -6.3,1.2 -7.2,1.95 -0.9,0.6 -3.3,1.65 -5.4,2.1 -7.35,1.5 -9.75,2.4 -15.3,4.65 -3.15,1.35 -5.7,1.95 -5.7,1.5 0,-0.6 -0.9,-0.3 -1.8,0.45 -1.05,0.9 -4.05,1.95 -6.75,2.4 -4.5,0.9 -46.2,15.75 -54.45,19.35 -2.1,0.9 -5.1,1.95 -6.6,2.25 -1.65,0.3 -4.95,1.8 -7.5,3.3 -2.55,1.5 -7.35,3.6 -10.65,4.65 -8.25,2.55 -43.8,20.25 -59.1,29.25 -27.6,16.5 -45.75,34.95 -50.55,51.15 -4.5,15.9 0.75,32.85 13.35,42.75 4.05,3.3 8.4,5.85 9.75,5.85 1.5,0 4.5,1.05 6.9,2.25 2.25,1.2 6.3,2.25 9,2.25 2.55,0 5.7,0.75 6.9,1.5 2.1,1.35 10.35,1.05 21.75,-0.75 z"
       id="path6" />
    <path
       d="m 1965.9,1885.8 c -0.45,-0.3 -3,-0.9 -5.7,-1.2 -2.7,-0.3 -6.3,-1.2 -7.95,-1.95 -13.95,-6.15 -32.1,-15.6 -49.05,-25.35 -5.4,-3.15 -8.85,-5.1 -21.75,-12.45 -3.15,-1.8 -7.65,-4.5 -10.2,-6 -2.4,-1.65 -5.55,-3.3 -6.75,-3.9 -1.2,-0.6 -7.35,-4.2 -13.5,-7.95 -6.15,-3.9 -14.55,-8.85 -18.75,-11.1 -11.25,-6.3 -32.1,-18.75 -40.8,-24.3 -4.35,-2.85 -8.25,-5.1 -8.7,-5.1 -1.05,0 -12.6,-7.35 -16.05,-10.2 -2.1,-1.8 -1.05,-3.9 11.1,-21.75 7.95,-11.85 14.25,-19.65 15.45,-19.35 1.2,0.15 6.45,3 11.85,6.3 8.7,5.25 22.65,13.2 40.65,23.25 3.3,1.8 9.45,5.25 13.5,7.5 25.8,14.55 48,23.25 69.75,27.15 13.95,2.55 35.7,3.75 36.75,1.95 0.45,-0.6 3,-1.05 5.55,-1.2 2.7,0 6.6,-0.45 8.7,-0.9 2.1,-0.6 5.7,-1.2 7.95,-1.65 6.45,-0.9 28.8,-10.95 39,-17.55 15,-9.6 33.6,-29.55 42.15,-45.3 7.5,-13.8 15.6,-35.1 16.8,-44.1 0.45,-2.85 1.35,-6.15 2.1,-7.5 0.75,-1.35 1.8,-5.85 2.25,-9.9 0.6,-4.2 1.35,-9.15 1.65,-11.25 3.15,-18.15 5.85,-92.4 3.45,-96.3 -0.75,-1.2 -3.15,0 -7.65,3.75 -28.65,24.6 -44.7,36.15 -63.3,46.2 -14.4,7.5 -34.2,14.85 -40.65,14.85 -1.95,0 -3.9,0.6 -4.5,1.35 -1.2,1.95 -27.15,1.5 -33,-0.45 -7.5,-2.7 -23.4,-11.25 -33.9,-18.3 -17.85,-12 -39,-30.6 -70.5,-62.1 -34.2,-34.05 -47.1,-48.45 -63.9,-70.95 -10.05,-13.5 -21.15,-32.55 -18.9,-32.55 0.45,0 0.15,-0.9 -0.75,-1.95 -1.65,-1.95 -2.55,-10.65 -4.2,-39.3 -1.8,-29.7 -3.6,-141.9 -4.2,-253.8 -0.45,-86.55 -0.75,-83.1 5.85,-81.45 0.9,0.3 4.5,1.05 8.25,1.8 3.75,0.75 8.4,1.8 10.5,2.25 2.1,0.45 5.1,0.9 6.75,1.2 1.65,0.15 3,0.45 3,0.75 0,0.15 1.35,0.45 3,0.75 3.45,0.6 6.9,1.5 13.95,3.6 2.7,0.75 5.25,1.5 5.55,1.5 0.45,0 3,0.45 5.7,0.9 2.55,0.45 5.85,1.05 7.05,1.35 1.2,0.15 4.95,1.2 8.25,2.1 3.3,0.9 8.4,1.95 11.25,2.4 7.65,1.05 13.65,2.4 18.75,3.9 4.5,1.35 10.2,2.55 17.25,3.75 2.1,0.3 5.4,1.2 7.5,1.95 l 3.75,1.35 -0.6,25.35 c -1.2,42.6 -0.9,281.7 0.3,308.85 2.25,50.7 4.65,67.8 10.35,73.8 6.3,6.75 16.8,13.5 24.6,15.75 8.25,2.4 28.65,2.25 33.3,-0.15 1.65,-0.9 3.3,-1.2 3.6,-0.75 1.2,1.05 22.05,-8.85 33.9,-16.2 33.15,-20.1 68.85,-57.6 95.55,-100.05 l 8.85,-14.1 0.15,-160.2 c 0,-88.05 0.6,-160.65 1.2,-161.25 0.45,-0.6 1.95,-0.15 3.3,0.9 1.2,1.05 2.25,1.5 2.25,1.05 0,-0.45 2.55,0 5.7,0.75 3,0.75 8.55,1.95 12.3,2.7 9.15,1.65 10.95,2.25 12.75,3.3 0.9,0.45 4.95,1.35 9,1.95 9.75,1.5 13.95,2.4 19.5,4.2 3.3,1.05 12.75,3 22.5,4.8 1.65,0.3 3,0.6 3,0.75 0,0.15 2.4,0.6 5.25,0.9 2.85,0.45 6.3,1.2 7.5,1.65 2.85,1.2 4.05,1.35 10.35,2.4 2.85,0.45 8.85,1.95 13.5,3.45 l 8.4,2.4 -0.3,292.8 c -0.15,160.95 -0.6,294.75 -0.9,297.15 -0.45,2.55 -1.2,6.6 -1.8,9 -0.6,2.55 -1.2,5.55 -1.5,6.75 -0.3,1.2 -0.6,2.25 -0.75,2.25 -0.15,0 -0.45,1.05 -0.75,2.25 -0.9,4.65 -10.65,26.55 -15.45,34.95 -8.85,15.3 -22.05,31.5 -40.35,49.2 -39.15,37.95 -81,63.6 -128.7,78.9 -8.1,2.7 -8.55,2.85 -14.25,4.2 -6.3,1.5 -6.6,1.65 -9.75,2.7 -7.8,2.55 -50.4,4.95 -52.35,2.85 z"
       id="path7" />
    <path
       d="m 544.35,1855.8 c -5.55,-0.6 -10.95,-6.6 -9.6,-10.65 1.2,-3.75 2.7,-3.9 7.35,-0.75 4.5,2.85 5.85,1.05 4.8,-6.15 -1.05,-6.15 0.45,-6.6 6,-1.5 7.2,6.75 11.25,3.3 7.35,-6.3 -1.2,-2.85 -2.25,-5.55 -2.25,-5.85 0,-1.65 5.85,-0.3 7.5,1.65 4.35,5.4 11.85,0.15 8.7,-6 -4.65,-8.55 -1.05,-16.5 4.5,-10.05 7.05,8.25 17.4,2.25 11.85,-6.75 -0.75,-1.05 -0.75,-1.95 -0.15,-1.95 0.45,0 0.15,-0.9 -0.75,-2.1 -1.35,-1.65 -1.5,-3 -0.15,-5.25 2.1,-4.05 3.9,-3.9 6.75,0.45 5.7,8.7 11.55,3.75 8.25,-7.05 -1.35,-4.8 -1.35,-6.3 0.3,-8.1 1.8,-1.8 3.15,-1.05 9,4.95 3.75,3.75 7.65,6.6 8.4,6 0.9,-0.45 1.2,-4.5 0.75,-9.6 -0.6,-6.6 -0.3,-9.15 1.5,-10.5 1.8,-1.65 3.15,-0.75 8.25,5.25 3.45,3.9 6.6,6.75 7.05,6.15 0.6,-0.45 1.2,-3.45 1.65,-6.6 0.45,-3.15 1.8,-7.5 3.15,-9.45 l 2.4,-3.75 3.45,4.5 c 1.95,2.4 3.6,4.95 3.6,5.55 0,2.55 6.15,10.05 8.25,10.05 1.05,0 2.25,-1.2 2.85,-2.55 0.45,-1.5 2.1,-6 3.6,-10.2 3.6,-10.65 6.9,-10.65 11.55,0 6.6,14.85 6.6,15 -8.25,15.15 -13.05,0.15 -22.95,1.2 -25.5,2.85 -0.9,0.6 -3.45,1.2 -5.7,1.65 -2.25,0.45 -7.5,2.4 -11.7,4.35 -4.2,2.1 -8.1,3.75 -8.55,3.75 -0.6,0 -2.25,1.05 -3.6,2.4 -4.95,4.35 -14.4,11.1 -15.6,11.1 -1.5,0 -11.7,9 -26.25,23.7 -6.9,6.75 -13.2,12.3 -13.95,12.3 -0.75,0 -2.4,1.2 -3.45,2.7 -3.15,4.2 -9.15,7.2 -13.35,6.6 z"
       id="path8" />
    <path
       d="m 1514.7,1853.1 c -2.4,-1.2 -4.2,-2.7 -4.2,-3.45 0,-0.6 -3,-2.55 -6.6,-4.35 -3.6,-1.8 -7.8,-5.25 -9.3,-7.5 -3.15,-4.65 -4.2,-19.35 -1.5,-22.65 0.9,-1.2 1.5,-2.4 1.2,-2.7 -0.3,-0.3 1.5,-4.05 3.9,-8.4 4.8,-8.55 29.85,-34.8 53.25,-55.8 l 14.55,-13.2 3.75,4.05 c 2.1,2.25 3.75,4.5 3.75,5.1 0,1.8 -10.95,11.7 -30,27.6 -23.4,19.35 -34.8,31.95 -36.9,40.95 -0.3,0.9 -0.75,3 -1.2,4.95 -0.45,1.8 -1.05,3.9 -1.5,4.5 -0.45,0.75 0.3,4.8 1.65,8.85 1.95,6.15 3.15,7.8 6.3,8.4 2.1,0.45 6.3,1.35 9.15,2.1 8.85,2.1 62.7,-0.3 67.2,-3.15 1.65,-1.05 27,-1.65 28.05,-0.6 0.45,0.45 1.2,2.55 1.5,4.65 0.9,4.35 -2.4,7.8 -6.6,6.6 -1.65,-0.45 -13.35,0.3 -25.95,1.65 -12.6,1.2 -26.4,2.1 -30.75,2.1 -4.35,-0.15 -8.25,0.45 -8.7,1.2 -1.5,2.4 -26.4,1.65 -31.05,-0.9 z"
       id="path9" />
    <path
       d="m 1525.05,1825.95 c -2.1,-3.15 -4.65,-7.65 -5.55,-10.05 -1.5,-4.2 -1.2,-4.8 10.05,-15.45 12.75,-12.3 27.9,-24.45 30.15,-24.45 0.75,0 1.8,-1.05 2.4,-2.25 0.45,-1.2 1.8,-2.25 2.85,-2.25 1.2,0 3.3,-1.35 4.95,-3.15 3.15,-3.6 8.55,-6.45 14.25,-7.8 3.15,-0.75 5.1,0.3 11.25,6.3 4.05,3.9 8.4,8.4 9.6,10.05 1.2,1.65 4.05,5.1 6.45,7.8 4.5,5.55 4.65,6 2.55,9.3 -1.05,1.8 -2.7,0.75 -8.7,-5.25 -8.55,-8.85 -15.3,-14.25 -17.7,-14.25 -1.95,0 -5.4,3.75 -4.35,4.65 0.3,0.45 1.05,3 1.5,5.7 0.45,2.85 1.65,6.45 2.55,8.25 1.8,3.3 2.1,4.2 2.7,9.15 1.05,9 -1.8,7.2 -11.7,-7.65 -5.55,-8.25 -10.65,-12.15 -12.9,-9.9 -1.8,1.8 -0.6,8.85 2.7,16.65 7.05,16.2 3,19.35 -7.2,5.4 -9.9,-13.65 -14.7,-13.35 -10.5,0.75 1.35,4.65 1.95,9.6 1.2,12.45 l -1.05,4.8 -7.2,-8.1 c -4.05,-4.5 -7.8,-7.65 -8.4,-7.05 -0.6,0.6 -1.2,4.2 -1.35,8.1 -0.15,7.8 -1.65,13.8 -3.45,13.8 -0.75,0 -3,-2.55 -5.1,-5.55 z"
       id="path10" />
    <path
       d="m 725.85,1795.5 c -2.4,-1.35 -7.35,-2.7 -11.4,-2.85 -0.9,-0.15 -2.7,-1.05 -3.75,-1.95 -1.05,-1.05 -2.55,-1.95 -3.45,-2.1 -7.5,-0.45 -17.55,-2.85 -18.9,-4.5 -1.2,-1.35 -1.2,-2.1 -0.15,-2.1 0.9,0 4.05,-4.05 7.05,-9 3,-4.95 6.15,-9 6.75,-9 2.25,0 5.55,6.3 6.75,12.75 0.6,3.3 1.35,6.6 1.95,7.35 0.45,0.75 4.05,-2.25 7.95,-6.75 l 7.2,-8.1 2.7,3.75 c 1.95,2.7 2.7,6.75 2.85,13.95 0,10.2 -0.75,11.4 -5.55,8.55 z"
       id="path11" />
    <path
       d="m 1315.5,1633.35 c -9.9,-1.5 -11.55,-2.1 -24,-7.65 -19.2,-8.85 -45.75,-29.55 -69.6,-54.3 -30.15,-31.5 -72,-85.2 -90.6,-116.4 -14.25,-23.7 -15,-25.5 -24.15,-54.15 -1.35,-4.2 -1.05,-14.7 0.6,-20.85 0.45,-2.1 1.05,-4.35 1.35,-5.25 1.35,-5.7 9.6,-18.3 16.2,-25.05 14.55,-14.85 32.4,-25.95 66.45,-41.7 13.8,-6.3 14.7,-6.75 27,-10.65 5.85,-1.8 11.4,-4.05 12.45,-4.8 0.9,-0.75 1.8,-0.9 1.8,-0.45 0,0.6 1.2,0.3 2.85,-0.45 1.5,-0.9 4.95,-1.95 7.8,-2.4 2.85,-0.45 10.2,-2.55 16.35,-4.5 6.3,-1.95 13.65,-3.9 16.5,-4.5 2.85,-0.45 6.6,-1.2 8.25,-1.5 1.65,-0.3 3,-0.6 3,-0.9 0,-0.3 2.7,-0.75 9.75,-1.95 2.1,-0.3 3.75,-0.75 3.75,-0.9 0,-0.15 1.05,-0.45 2.25,-0.75 6.3,-1.35 12,-2.55 18.75,-3.75 4.2,-0.75 10.05,-2.1 13.05,-3 3.15,-0.9 7.8,-1.95 10.5,-2.25 5.55,-0.75 10.35,-1.5 19.5,-3.15 3.6,-0.6 6.9,-1.2 7.5,-1.2 0.45,-0.15 1.35,-0.6 1.95,-1.2 0.6,-0.6 1.8,-0.75 2.85,-0.3 1.05,0.45 6,-0.3 10.95,-1.5 5.1,-1.05 9.6,-1.8 10.05,-1.35 0.3,0.45 1.65,0.15 2.7,-0.45 1.05,-0.75 3,-1.5 4.2,-1.65 2.7,-0.45 13.8,-1.95 21,-2.85 13.95,-1.8 29.25,-3.9 42.75,-6 l 6,-0.9 0.45,-11.4 c 0.9,-19.95 0.9,-24.9 -0.3,-31.05 -0.75,-3.3 -1.35,-7.2 -1.5,-8.55 -0.15,-1.5 -0.75,-3.15 -1.35,-3.6 -0.6,-0.6 -1.05,-2.1 -1.05,-3.3 0,-2.4 -7.95,-12.9 -13.5,-17.85 -3.45,-3 -18.3,-9.45 -24,-10.5 -11.4,-1.95 -15.6,-2.4 -24,-2.4 -5.4,0 -13.05,0.45 -17.25,1.05 -4.05,0.6 -9.9,1.35 -12.75,1.8 -11.25,1.35 -15.9,2.1 -20.25,2.85 -2.4,0.45 -6.15,1.05 -8.25,1.35 -2.1,0.3 -3.9,0.75 -4.05,0.9 -0.3,0.15 -1.8,0.6 -3.45,0.75 -1.65,0.15 -3.45,0.6 -4.05,0.75 -0.75,0.15 -1.8,0.3 -2.55,0.15 -0.75,-0.15 -2.4,0.15 -3.75,0.75 -1.35,0.6 -3.75,1.35 -5.4,1.65 -1.65,0.3 -7.35,1.5 -12.75,2.85 -5.4,1.35 -11.4,2.7 -13.35,3.15 -2.1,0.3 -4.2,0.9 -4.65,1.2 -0.6,0.3 -3,0.9 -5.4,1.35 -2.4,0.45 -9.45,2.25 -15.6,3.9 -6.15,1.65 -12.9,3.3 -15,3.75 -2.1,0.45 -6.45,1.95 -9.75,3.15 -3.3,1.35 -6.15,2.25 -6.3,2.25 -0.3,-0.15 -0.6,-0.15 -0.75,0 -0.3,0 -1.65,0.3 -3,0.75 -3.75,0.9 -5.55,1.35 -13.2,3.45 -3.75,1.05 -7.8,2.1 -9,2.4 -1.2,0.3 -4.05,1.2 -6.45,2.1 -2.25,0.9 -5.7,1.95 -7.5,2.25 -7.2,1.35 -16.95,4.2 -18.6,5.7 -1.05,0.9 -1.95,1.2 -1.95,0.75 0,-0.45 -2.4,0.15 -5.25,1.35 -2.85,1.05 -5.4,2.1 -5.85,2.1 -0.6,0 -11.4,-17.7 -11.4,-18.75 0,-0.3 -3.45,-6.15 -7.5,-13.05 -8.85,-14.4 -7.05,-11.55 -21.75,-36.45 -6.45,-10.65 -13.2,-21.9 -15.15,-24.75 -3.45,-4.8 -3.45,-5.4 -1.05,-7.2 1.35,-0.9 3.9,-1.95 5.55,-1.95 4.2,-0.3 5.7,-0.6 8.4,-1.8 1.2,-0.45 4.35,-1.2 6.75,-1.65 2.55,-0.3 4.5,-0.75 4.5,-0.9 0,-0.15 1.05,-0.45 2.25,-0.75 7.05,-1.8 10.2,-2.4 13.5,-3 2.1,-0.3 7.65,-1.65 12.45,-2.7 4.65,-1.2 8.55,-1.8 8.55,-1.35 0,0.3 0.9,0 1.95,-0.9 1.05,-0.9 4.65,-1.95 7.8,-2.4 3.3,-0.3 6.3,-0.75 6.75,-0.9 0.45,-0.3 1.2,-0.3 1.8,-0.15 0.45,0 4.2,-0.9 8.25,-2.1 3.9,-1.2 9.6,-2.55 12.45,-3 9.75,-1.8 12,-2.25 15.45,-3 1.8,-0.3 5.55,-0.9 8.25,-1.35 2.7,-0.45 5.55,-1.2 6.3,-1.65 0.75,-0.45 3.9,-1.2 7.05,-1.65 3.15,-0.3 8.25,-1.35 11.4,-2.25 3.3,-0.9 6.15,-1.2 6.6,-0.75 0.45,0.3 2.4,0 4.5,-0.75 4.2,-1.5 13.35,-3.3 16.95,-3.15 1.2,0 3.3,-0.3 4.5,-0.75 3.75,-1.5 6.45,-1.95 11.25,-2.1 2.55,-0.15 5.25,-0.75 6,-1.35 1.5,-1.2 12.15,-2.7 26.1,-3.9 4.5,-0.3 8.85,-1.2 9.75,-1.65 0.9,-0.6 3,-1.2 4.65,-1.35 1.65,-0.15 6.45,-0.75 10.5,-1.35 4.2,-0.75 10.5,-1.35 14.25,-1.5 3.75,-0.3 6.9,-0.6 7.2,-0.75 1.35,-1.2 17.25,-0.45 22.65,1.05 20.85,6 57,36.15 118.65,98.85 48.9,49.8 73.8,80.25 75.6,92.85 0.6,3.45 1.35,7.8 1.65,9.75 3.75,18.6 3.6,126 -0.15,255 -0.3,11.1 -0.75,42.15 -1.05,69 l -0.6,48.75 -4.35,-0.6 c -2.4,-0.15 -4.95,-0.9 -5.85,-1.35 -1.65,-1.05 -4.5,-1.8 -9,-2.1 -1.65,-0.15 -3.75,-0.75 -4.65,-1.5 -1.05,-0.75 -2.4,-1.2 -3,-1.05 -0.75,0.15 -1.95,0 -2.85,-0.15 -0.75,-0.15 -2.1,-0.45 -3,-0.6 -8.4,-1.5 -13.95,-2.85 -15.75,-3.45 -1.2,-0.45 -2.85,-1.05 -3.75,-1.05 -0.75,-0.15 -4.35,-1.05 -7.65,-2.1 -3.45,-1.05 -8.1,-2.1 -10.5,-2.4 -7.2,-1.05 -14.7,-2.7 -17.1,-3.9 -1.2,-0.75 -4.8,-1.65 -7.8,-2.1 -3.15,-0.45 -8.55,-1.65 -12,-2.4 -7.95,-1.95 -14.25,-3.45 -22.5,-5.25 -1.8,-0.3 -3.9,-1.35 -4.65,-2.1 -1.35,-1.35 -1.5,-18.9 -0.3,-42.6 0.6,-14.4 -1.35,-14.4 -15.45,-0.75 -31.2,30.3 -58.2,50.55 -85.8,64.35 -6.9,3.45 -13.65,6.45 -14.85,6.6 -1.35,0.3 -2.55,0.6 -2.7,0.75 -0.3,0.3 -0.9,0.45 -1.5,0.6 -0.75,0.15 -3.6,1.05 -6.6,2.1 -3,1.05 -6.15,1.8 -6.75,1.65 -0.75,-0.15 -1.65,0 -2.1,0.15 -1.8,0.9 -13.35,0.75 -19.5,-0.15 z m -18,-122.4 c 2.1,-0.45 4.8,-0.75 6.3,-0.6 1.35,0.15 2.85,-0.45 3.45,-1.35 0.45,-0.9 1.65,-1.2 2.4,-0.6 0.75,0.45 3.9,0 7.05,-1.05 3,-1.05 6.3,-2.1 7.05,-2.4 10.05,-2.55 28.8,-8.4 30,-9.3 0.9,-0.6 4.2,-1.95 7.5,-3 7.8,-2.55 28.65,-12 39,-17.7 27.3,-15.3 61.5,-37.35 68.7,-44.55 l 4.8,-4.65 v -48 c 0,-46.95 0,-48 -3,-48.15 -1.65,0 -3.6,0.3 -4.5,0.75 -0.75,0.45 -1.95,0.9 -2.55,1.05 -0.75,0.15 -1.5,0.45 -1.95,0.6 -0.45,0.15 -1.2,0.45 -1.8,0.75 -0.75,0.15 -2.25,0.6 -3.45,1.05 -4.5,1.65 -14.25,4.5 -15.75,4.5 -0.75,0 -4.65,1.35 -8.55,2.85 -4.05,1.5 -7.2,2.4 -7.2,2.1 0,-0.45 -1.95,0.15 -4.5,1.5 -2.4,1.35 -4.5,1.95 -4.5,1.5 0,-0.6 -0.9,-0.45 -1.8,0.3 -1.05,0.6 -2.25,1.2 -2.7,1.35 -0.45,0 -1.8,0.6 -3,1.05 -1.2,0.45 -10.35,3.6 -20.25,6.75 -19.95,6.6 -39.75,14.25 -46.05,17.7 -2.4,1.2 -4.2,1.95 -4.2,1.35 0,-0.45 -1.65,0.3 -3.75,1.65 -2.1,1.35 -3.75,1.95 -3.75,1.5 0,-0.6 -1.8,0 -4.05,1.2 -2.4,1.2 -11.25,5.55 -20.1,9.75 -36.9,17.25 -67.5,39.45 -78.6,57.15 -14.55,23.1 -4.8,51 21.6,61.5 4.35,1.65 8.4,2.7 8.85,2.25 0.45,-0.3 1.65,0 2.85,0.9 1.05,0.9 1.95,1.35 1.95,0.9 0,-0.45 1.8,-0.3 4.2,0.45 4.35,1.2 24,0.6 30.3,-1.05 z"
       id="path12" />
    <path
       d="m 1218.6,996.15 c -1.2,-1.2 -6.6,-13.8 -6.6,-15.45 0,-0.75 -1.65,-5.1 -3.75,-9.6 -2.1,-4.5 -3.75,-9.3 -3.75,-10.5 0,-1.2 -0.75,-3.75 -1.8,-5.55 -1.05,-1.8 -1.95,-3.9 -2.1,-4.8 -0.15,-0.75 -1.2,-3.45 -2.25,-6 -1.05,-2.4 -1.95,-4.8 -1.95,-5.25 -0.15,-0.45 -0.75,-1.5 -1.35,-2.55 -0.6,-0.9 -0.6,-1.95 0,-2.25 0.75,-0.45 72.6,-0.6 159.9,-0.45 137.25,0.15 158.85,0.45 160.05,2.25 0.75,1.2 4.65,10.35 8.4,20.25 3.9,9.9 7.8,20.1 8.85,22.5 3.3,7.95 6.75,17.25 6.3,17.4 -1.5,0.6 -319.35,0.6 -319.95,0 z"
       id="path13" />
    <path
       d="m 2479.35,995.1 c -1.2,-1.5 -3.3,-6.75 -9.6,-24.6 -1.2,-3.75 -2.85,-8.1 -3.6,-9.75 -6.75,-16.05 -10.35,-26.25 -9.45,-26.7 0.9,-0.45 316.35,-0.15 318.45,0.3 1.05,0.15 5.85,9.75 6.6,12.75 0.15,0.9 1.2,3.75 2.1,6.15 1.05,2.55 4.35,10.95 7.2,18.75 3,7.8 5.85,15 6.45,15.75 0.75,0.9 1.5,3.15 1.8,5.25 l 0.45,3.75 H 2640.3 c -117.3,0 -159.9,-0.3 -160.95,-1.65 z"
       id="path14" />
  </g>
</svg>
